<?xml version="1.0" encoding="UTF-8"?>
<svg width="375px" height="227px" viewBox="0 0 375 227" version="1.1" xmlns="http://www.w3.org/2000/svg" xmlns:xlink="http://www.w3.org/1999/xlink">
    <!-- Generator: Sketch 52 (66869) - http://www.bohemiancoding.com/sketch -->
    <title>Group 286</title>
    <desc>Created with Sketch.</desc>
    <g id="UI" stroke="none" stroke-width="1" fill="none" fill-rule="evenodd" opacity="0.188313802">
        <g id="inicio" transform="translate(0.000000, -50.000000)" fill="#68C1C2">
            <g id="Group-286" transform="translate(-13.000000, 50.000000)">
                <g id="Group-19" transform="translate(260.000000, 108.000000)">
                    <polygon id="Fill-1" points="51.6975 6.6704 51.6975 4.5264 49.5305 4.5264 49.5305 2.5774 51.6975 2.5774 51.6975 0.4334 53.6355 0.4334 53.6355 2.5774 55.8015 2.5774 55.8015 4.5264 53.6355 4.5264 53.6355 6.6704"></polygon>
                    <polygon id="Fill-3" points="44.1756 24.8638 44.1756 23.4608 42.7576 23.4608 42.7576 22.1848 44.1756 22.1848 44.1756 20.7818 45.4446 20.7818 45.4446 22.1848 46.8626 22.1848 46.8626 23.4608 45.4446 23.4608 45.4446 24.8638"></polygon>
                    <polygon id="Fill-5" points="37.239 8.9858 37.239 7.5828 35.821 7.5828 35.821 6.3068 37.239 6.3068 37.239 4.9028 38.508 4.9028 38.508 6.3068 39.926 6.3068 39.926 7.5828 38.508 7.5828 38.508 8.9858"></polygon>
                    <polygon id="Fill-7" points="52.9558 20.1685 52.9558 19.2475 52.0248 19.2475 52.0248 18.4105 52.9558 18.4105 52.9558 17.4895 53.7888 17.4895 53.7888 18.4105 54.7188 18.4105 54.7188 19.2475 53.7888 19.2475 53.7888 20.1685"></polygon>
                    <polygon id="Fill-9" points="62.6663 16.0444 62.6663 13.9004 60.4993 13.9004 60.4993 11.9514 62.6663 11.9514 62.6663 9.8074 64.6043 9.8074 64.6043 11.9514 66.7703 11.9514 66.7703 13.9004 64.6043 13.9004 64.6043 16.0444"></polygon>
                    <polygon id="Fill-11" points="15.3601 6.9443 15.3601 4.8013 13.1931 4.8013 13.1931 2.8513 15.3601 2.8513 15.3601 0.7083 17.2981 0.7083 17.2981 2.8513 19.4641 2.8513 19.4641 4.8013 17.2981 4.8013 17.2981 6.9443"></polygon>
                    <polygon id="Fill-13" points="7.8382 25.1382 7.8382 23.7352 6.4202 23.7352 6.4202 22.4592 7.8382 22.4592 7.8382 21.0552 9.1072 21.0552 9.1072 22.4592 10.5252 22.4592 10.5252 23.7352 9.1072 23.7352 9.1072 25.1382"></polygon>
                    <polygon id="Fill-15" points="1.6365 10.0371 1.6365 9.1171 0.7055 9.1171 0.7055 8.2791 1.6365 8.2791 1.6365 7.3581 2.4695 7.3581 2.4695 8.2791 3.3995 8.2791 3.3995 9.1171 2.4695 9.1171 2.4695 10.0371"></polygon>
                    <polygon id="Fill-17" points="26.3289 16.3184 26.3289 14.1754 24.1619 14.1754 24.1619 12.2254 26.3289 12.2254 26.3289 10.0814 28.2669 10.0814 28.2669 12.2254 30.4329 12.2254 30.4329 14.1754 28.2669 14.1754 28.2669 16.3184"></polygon>
                </g>
                <g id="Group-38" transform="translate(117.000000, 150.000000)">
                    <polygon id="Fill-20" points="51.3328 6.4111 51.3328 4.2681 49.1668 4.2681 49.1668 2.3181 51.3328 2.3181 51.3328 0.1741 53.2708 0.1741 53.2708 2.3181 55.4378 2.3181 55.4378 4.2681 53.2708 4.2681 53.2708 6.4111"></polygon>
                    <polygon id="Fill-22" points="43.8108 24.6045 43.8108 23.2015 42.3928 23.2015 42.3928 21.9255 43.8108 21.9255 43.8108 20.5225 45.0798 20.5225 45.0798 21.9255 46.4978 21.9255 46.4978 23.2015 45.0798 23.2015 45.0798 24.6045"></polygon>
                    <polygon id="Fill-24" points="36.8743 8.7266 36.8743 7.3236 35.4573 7.3236 35.4573 6.0476 36.8743 6.0476 36.8743 4.6436 38.1433 4.6436 38.1433 6.0476 39.5613 6.0476 39.5613 7.3236 38.1433 7.3236 38.1433 8.7266"></polygon>
                    <polygon id="Fill-26" points="52.5911 19.9092 52.5911 18.9892 51.6601 18.9892 51.6601 18.1512 52.5911 18.1512 52.5911 17.2302 53.4241 17.2302 53.4241 18.1512 54.3541 18.1512 54.3541 18.9892 53.4241 18.9892 53.4241 19.9092"></polygon>
                    <polygon id="Fill-28" points="62.3015 15.7852 62.3015 13.6412 60.1355 13.6412 60.1355 11.6922 62.3015 11.6922 62.3015 9.5482 64.2395 9.5482 64.2395 11.6922 66.4065 11.6922 66.4065 13.6412 64.2395 13.6412 64.2395 15.7852"></polygon>
                    <polygon id="Fill-30" points="14.9954 6.6855 14.9954 4.5415 12.8294 4.5415 12.8294 2.5925 14.9954 2.5925 14.9954 0.4485 16.9334 0.4485 16.9334 2.5925 19.0994 2.5925 19.0994 4.5415 16.9334 4.5415 16.9334 6.6855"></polygon>
                    <polygon id="Fill-32" points="7.4734 24.8789 7.4734 23.4759 6.0554 23.4759 6.0554 22.1999 7.4734 22.1999 7.4734 20.7959 8.7424 20.7959 8.7424 22.1999 10.1604 22.1999 10.1604 23.4759 8.7424 23.4759 8.7424 24.8789"></polygon>
                    <polygon id="Fill-34" points="1.2717 9.7783 1.2717 8.8573 0.3407 8.8573 0.3407 8.0203 1.2717 8.0203 1.2717 7.0993 2.1047 7.0993 2.1047 8.0203 3.0347 8.0203 3.0347 8.8573 2.1047 8.8573 2.1047 9.7783"></polygon>
                    <polygon id="Fill-36" points="25.9641 16.0591 25.9641 13.9161 23.7981 13.9161 23.7981 11.9661 25.9641 11.9661 25.9641 9.8231 27.9021 9.8231 27.9021 11.9661 30.0681 11.9661 30.0681 13.9161 27.9021 13.9161 27.9021 16.0591"></polygon>
                </g>
                <g id="Group-57" opacity="0.351678757" transform="translate(286.000000, 62.000000)">
                    <polygon id="Fill-39" points="74.6658 9.814 74.6658 6.707 71.5248 6.707 71.5248 3.88 74.6658 3.88 74.6658 0.772 77.4758 0.772 77.4758 3.88 80.6168 3.88 80.6168 6.707 77.4758 6.707 77.4758 9.814"></polygon>
                    <polygon id="Fill-41" points="63.7605 36.1904 63.7605 34.1564 61.7045 34.1564 61.7045 32.3064 63.7605 32.3064 63.7605 30.2724 65.5995 30.2724 65.5995 32.3064 67.6565 32.3064 67.6565 34.1564 65.5995 34.1564 65.5995 36.1904"></polygon>
                    <polygon id="Fill-43" points="53.7044 13.1709 53.7044 11.1369 51.6484 11.1369 51.6484 9.2869 53.7044 9.2869 53.7044 7.2529 55.5434 7.2529 55.5434 9.2869 57.6004 9.2869 57.6004 11.1369 55.5434 11.1369 55.5434 13.1709"></polygon>
                    <polygon id="Fill-45" points="76.49 29.3833 76.49 28.0483 75.141 28.0483 75.141 26.8343 76.49 26.8343 76.49 25.4993 77.697 25.4993 77.697 26.8343 79.046 26.8343 79.046 28.0483 77.697 28.0483 77.697 29.3833"></polygon>
                    <polygon id="Fill-47" points="90.5681 23.4038 90.5681 20.2968 87.4271 20.2968 87.4271 17.4698 90.5681 17.4698 90.5681 14.3618 93.3781 14.3618 93.3781 17.4698 96.5191 17.4698 96.5191 20.2968 93.3781 20.2968 93.3781 23.4038"></polygon>
                    <polygon id="Fill-49" points="21.9851 10.2114 21.9851 7.1044 18.8441 7.1044 18.8441 4.2774 21.9851 4.2774 21.9851 1.1694 24.7951 1.1694 24.7951 4.2774 27.9361 4.2774 27.9361 7.1044 24.7951 7.1044 24.7951 10.2114"></polygon>
                    <polygon id="Fill-51" points="11.0799 36.5879 11.0799 34.5539 9.0239 34.5539 9.0239 32.7039 11.0799 32.7039 11.0799 30.6699 12.9189 30.6699 12.9189 32.7039 14.9749 32.7039 14.9749 34.5539 12.9189 34.5539 12.9189 36.5879"></polygon>
                    <polygon id="Fill-53" points="2.0891 14.6953 2.0891 13.3603 0.7401 13.3603 0.7401 12.1463 2.0891 12.1463 2.0891 10.8113 3.2961 10.8113 3.2961 12.1463 4.6451 12.1463 4.6451 13.3603 3.2961 13.3603 3.2961 14.6953"></polygon>
                    <polygon id="Fill-55" points="37.887 23.8018 37.887 20.6948 34.747 20.6948 34.747 17.8678 37.887 17.8678 37.887 14.7598 40.697 14.7598 40.697 17.8678 43.838 17.8678 43.838 20.6948 40.697 20.6948 40.697 23.8018"></polygon>
                </g>
                <g id="Group-76" opacity="0.687197731" transform="translate(105.000000, 56.000000)">
                    <polygon id="Fill-58" points="74.658 9.1333 74.658 6.0263 71.517 6.0263 71.517 3.1993 74.658 3.1993 74.658 0.0913 77.468 0.0913 77.468 3.1993 80.609 3.1993 80.609 6.0263 77.468 6.0263 77.468 9.1333"></polygon>
                    <polygon id="Fill-60" points="63.7527 35.5093 63.7527 33.4753 61.6967 33.4753 61.6967 31.6253 63.7527 31.6253 63.7527 29.5913 65.5917 29.5913 65.5917 31.6253 67.6487 31.6253 67.6487 33.4753 65.5917 33.4753 65.5917 35.5093"></polygon>
                    <polygon id="Fill-62" points="53.6965 12.4897 53.6965 10.4557 51.6405 10.4557 51.6405 8.6057 53.6965 8.6057 53.6965 6.5717 55.5355 6.5717 55.5355 8.6057 57.5925 8.6057 57.5925 10.4557 55.5355 10.4557 55.5355 12.4897"></polygon>
                    <polygon id="Fill-64" points="76.4822 28.7021 76.4822 27.3681 75.1332 27.3681 75.1332 26.1531 76.4822 26.1531 76.4822 24.8181 77.6892 24.8181 77.6892 26.1531 79.0382 26.1531 79.0382 27.3681 77.6892 27.3681 77.6892 28.7021"></polygon>
                    <polygon id="Fill-66" points="90.5598 22.7231 90.5598 19.6161 87.4198 19.6161 87.4198 16.7891 90.5598 16.7891 90.5598 13.6811 93.3698 13.6811 93.3698 16.7891 96.5108 16.7891 96.5108 19.6161 93.3698 19.6161 93.3698 22.7231"></polygon>
                    <polygon id="Fill-68" points="21.9773 9.5308 21.9773 6.4238 18.8363 6.4238 18.8363 3.5968 21.9773 3.5968 21.9773 0.4888 24.7873 0.4888 24.7873 3.5968 27.9283 3.5968 27.9283 6.4238 24.7873 6.4238 24.7873 9.5308"></polygon>
                    <polygon id="Fill-70" points="11.072 35.9067 11.072 33.8727 9.016 33.8727 9.016 32.0227 11.072 32.0227 11.072 29.9887 12.911 29.9887 12.911 32.0227 14.967 32.0227 14.967 33.8727 12.911 33.8727 12.911 35.9067"></polygon>
                    <polygon id="Fill-72" points="2.0813 14.0146 2.0813 12.6796 0.7323 12.6796 0.7323 11.4656 2.0813 11.4656 2.0813 10.1306 3.2883 10.1306 3.2883 11.4656 4.6373 11.4656 4.6373 12.6796 3.2883 12.6796 3.2883 14.0146"></polygon>
                    <polygon id="Fill-74" points="37.8792 23.1206 37.8792 20.0136 34.7392 20.0136 34.7392 17.1866 37.8792 17.1866 37.8792 14.0786 40.6892 14.0786 40.6892 17.1866 43.8302 17.1866 43.8302 20.0136 40.6892 20.0136 40.6892 23.1206"></polygon>
                </g>
                <g id="Group-95" opacity="0.765508743" transform="translate(325.000000, 18.000000)">
                    <polygon id="Fill-81" points="60.2571 14.707 60.2571 12.414 57.9391 12.414 57.9391 10.328 60.2571 10.328 60.2571 8.034 62.3311 8.034 62.3311 10.328 64.6491 10.328 64.6491 12.414 62.3311 12.414 62.3311 14.707"></polygon>
                    <polygon id="Fill-87" points="24.4925 11.3706 24.4925 7.8676 20.9515 7.8676 20.9515 4.6796 24.4925 4.6796 24.4925 1.1756 27.6605 1.1756 27.6605 4.6796 31.2025 4.6796 31.2025 7.8676 27.6605 7.8676 27.6605 11.3706"></polygon>
                    <polygon id="Fill-89" points="12.1966 41.1104 12.1966 38.8174 9.8786 38.8174 9.8786 36.7314 12.1966 36.7314 12.1966 34.4374 14.2706 34.4374 14.2706 36.7314 16.5886 36.7314 16.5886 38.8174 14.2706 38.8174 14.2706 41.1104"></polygon>
                    <polygon id="Fill-91" points="2.0594 16.4263 2.0594 14.9213 0.5384 14.9213 0.5384 13.5513 2.0594 13.5513 2.0594 12.0473 3.4204 12.0473 3.4204 13.5513 4.9414 13.5513 4.9414 14.9213 3.4204 14.9213 3.4204 16.4263"></polygon>
                    <polygon id="Fill-93" points="42.4226 26.6938 42.4226 23.1898 38.8816 23.1898 38.8816 20.0028 42.4226 20.0028 42.4226 16.4988 45.5906 16.4988 45.5906 20.0028 49.1326 20.0028 49.1326 23.1898 45.5906 23.1898 45.5906 26.6938"></polygon>
                </g>
                <g id="Group-114" opacity="0.469563802" transform="translate(13.000000, 18.000000)">
                    <polygon id="Fill-96" points="83.3538 10.9224 83.3538 7.4194 79.8128 7.4194 79.8128 4.2314 83.3538 4.2314 83.3538 0.7274 86.5218 0.7274 86.5218 4.2314 90.0628 4.2314 90.0628 7.4194 86.5218 7.4194 86.5218 10.9224"></polygon>
                    <polygon id="Fill-98" points="71.0579 40.6621 71.0579 38.3691 68.7399 38.3691 68.7399 36.2831 71.0579 36.2831 71.0579 33.9891 73.1319 33.9891 73.1319 36.2831 75.4499 36.2831 75.4499 38.3691 73.1319 38.3691 73.1319 40.6621"></polygon>
                    <polygon id="Fill-100" points="59.719 14.707 59.719 12.414 57.402 12.414 57.402 10.328 59.719 10.328 59.719 8.034 61.793 8.034 61.793 10.328 64.111 10.328 64.111 12.414 61.793 12.414 61.793 14.707"></polygon>
                    <polygon id="Fill-102" points="85.4104 32.9868 85.4104 31.4818 83.8894 31.4818 83.8894 30.1128 85.4104 30.1128 85.4104 28.6078 86.7714 28.6078 86.7714 30.1128 88.2924 30.1128 88.2924 31.4818 86.7714 31.4818 86.7714 32.9868"></polygon>
                    <polygon id="Fill-104" points="101.284 26.2456 101.284 22.7416 97.743 22.7416 97.743 19.5546 101.284 19.5546 101.284 16.0506 104.452 16.0506 104.452 19.5546 107.993 19.5546 107.993 22.7416 104.452 22.7416 104.452 26.2456"></polygon>
                    <polygon id="Fill-106" points="23.9544 11.3706 23.9544 7.8676 20.4134 7.8676 20.4134 4.6796 23.9544 4.6796 23.9544 1.1756 27.1224 1.1756 27.1224 4.6796 30.6644 4.6796 30.6644 7.8676 27.1224 7.8676 27.1224 11.3706"></polygon>
                    <polygon id="Fill-108" points="11.6585 41.1104 11.6585 38.8174 9.3405 38.8174 9.3405 36.7314 11.6585 36.7314 11.6585 34.4374 13.7325 34.4374 13.7325 36.7314 16.0505 36.7314 16.0505 38.8174 13.7325 38.8174 13.7325 41.1104"></polygon>
                    <polygon id="Fill-110" points="1.5213 16.4263 1.5213 14.9213 0.0003 14.9213 0.0003 13.5513 1.5213 13.5513 1.5213 12.0473 2.8823 12.0473 2.8823 13.5513 4.4033 13.5513 4.4033 14.9213 2.8823 14.9213 2.8823 16.4263"></polygon>
                    <polygon id="Fill-112" points="41.8845 26.6938 41.8845 23.1898 38.3435 23.1898 38.3435 20.0028 41.8845 20.0028 41.8845 16.4988 45.0525 16.4988 45.0525 20.0028 48.5945 20.0028 48.5945 23.1898 45.0525 23.1898 45.0525 26.6938"></polygon>
                </g>
                <g id="Group-133" transform="translate(182.000000, 113.000000)">
                    <polygon id="Fill-115" points="51.051 6.417 51.051 4.274 48.885 4.274 48.885 2.324 51.051 2.324 51.051 0.18 52.989 0.18 52.989 2.324 55.155 2.324 55.155 4.274 52.989 4.274 52.989 6.417"></polygon>
                    <polygon id="Fill-117" points="43.5291 24.6108 43.5291 23.2078 42.1111 23.2078 42.1111 21.9318 43.5291 21.9318 43.5291 20.5278 44.7981 20.5278 44.7981 21.9318 46.2161 21.9318 46.2161 23.2078 44.7981 23.2078 44.7981 24.6108"></polygon>
                    <polygon id="Fill-119" points="36.5925 8.7324 36.5925 7.3294 35.1745 7.3294 35.1745 6.0534 36.5925 6.0534 36.5925 4.6504 37.8615 4.6504 37.8615 6.0534 39.2795 6.0534 39.2795 7.3294 37.8615 7.3294 37.8615 8.7324"></polygon>
                    <polygon id="Fill-121" points="52.3093 19.915 52.3093 18.995 51.3783 18.995 51.3783 18.157 52.3093 18.157 52.3093 17.236 53.1423 17.236 53.1423 18.157 54.0723 18.157 54.0723 18.995 53.1423 18.995 53.1423 19.915"></polygon>
                    <polygon id="Fill-123" points="62.0198 15.791 62.0198 13.648 59.8538 13.648 59.8538 11.698 62.0198 11.698 62.0198 9.554 63.9578 9.554 63.9578 11.698 66.1238 11.698 66.1238 13.648 63.9578 13.648 63.9578 15.791"></polygon>
                    <polygon id="Fill-125" points="14.7136 6.6914 14.7136 4.5474 12.5466 4.5474 12.5466 2.5984 14.7136 2.5984 14.7136 0.4544 16.6516 0.4544 16.6516 2.5984 18.8176 2.5984 18.8176 4.5474 16.6516 4.5474 16.6516 6.6914"></polygon>
                    <polygon id="Fill-127" points="7.1917 24.8848 7.1917 23.4818 5.7737 23.4818 5.7737 22.2058 7.1917 22.2058 7.1917 20.8028 8.4607 20.8028 8.4607 22.2058 9.8787 22.2058 9.8787 23.4818 8.4607 23.4818 8.4607 24.8848"></polygon>
                    <polygon id="Fill-129" points="0.99 9.7842 0.99 8.8632 0.059 8.8632 0.059 8.0262 0.99 8.0262 0.99 7.1052 1.823 7.1052 1.823 8.0262 2.753 8.0262 2.753 8.8632 1.823 8.8632 1.823 9.7842"></polygon>
                    <polygon id="Fill-131" points="25.6824 16.0654 25.6824 13.9214 23.5164 13.9214 23.5164 11.9724 25.6824 11.9724 25.6824 9.8284 27.6204 9.8284 27.6204 11.9724 29.7864 11.9724 29.7864 13.9214 27.6204 13.9214 27.6204 16.0654"></polygon>
                </g>
                <g id="Group-152" transform="translate(137.000000, 26.000000)">
                    <polygon id="Fill-134" points="51.1384 6.6816 51.1384 4.5386 48.9714 4.5386 48.9714 2.5886 51.1384 2.5886 51.1384 0.4456 53.0764 0.4456 53.0764 2.5886 55.2424 2.5886 55.2424 4.5386 53.0764 4.5386 53.0764 6.6816"></polygon>
                    <polygon id="Fill-136" points="43.6165 24.8755 43.6165 23.4725 42.1985 23.4725 42.1985 22.1965 43.6165 22.1965 43.6165 20.7925 44.8855 20.7925 44.8855 22.1965 46.3035 22.1965 46.3035 23.4725 44.8855 23.4725 44.8855 24.8755"></polygon>
                    <polygon id="Fill-138" points="36.6799 8.9971 36.6799 7.5941 35.2619 7.5941 35.2619 6.3181 36.6799 6.3181 36.6799 4.9151 37.9489 4.9151 37.9489 6.3181 39.3669 6.3181 39.3669 7.5941 37.9489 7.5941 37.9489 8.9971"></polygon>
                    <polygon id="Fill-140" points="52.3967 20.1802 52.3967 19.2592 51.4657 19.2592 51.4657 18.4222 52.3967 18.4222 52.3967 17.5012 53.2297 17.5012 53.2297 18.4222 54.1597 18.4222 54.1597 19.2592 53.2297 19.2592 53.2297 20.1802"></polygon>
                    <polygon id="Fill-142" points="62.1072 16.0557 62.1072 13.9127 59.9402 13.9127 59.9402 11.9627 62.1072 11.9627 62.1072 9.8187 64.0452 9.8187 64.0452 11.9627 66.2112 11.9627 66.2112 13.9127 64.0452 13.9127 64.0452 16.0557"></polygon>
                    <polygon id="Fill-144" points="14.8006 6.9561 14.8006 4.8131 12.6346 4.8131 12.6346 2.8631 14.8006 2.8631 14.8006 0.7191 16.7386 0.7191 16.7386 2.8631 18.9056 2.8631 18.9056 4.8131 16.7386 4.8131 16.7386 6.9561"></polygon>
                    <polygon id="Fill-146" points="7.2786 25.1494 7.2786 23.7464 5.8616 23.7464 5.8616 22.4704 7.2786 22.4704 7.2786 21.0674 8.5476 21.0674 8.5476 22.4704 9.9656 22.4704 9.9656 23.7464 8.5476 23.7464 8.5476 25.1494"></polygon>
                    <polygon id="Fill-148" points="1.0769 10.0488 1.0769 9.1278 0.1469 9.1278 0.1469 8.2908 1.0769 8.2908 1.0769 7.3698 1.9099 7.3698 1.9099 8.2908 2.8409 8.2908 2.8409 9.1278 1.9099 9.1278 1.9099 10.0488"></polygon>
                    <polygon id="Fill-150" points="25.7693 16.3301 25.7693 14.1861 23.6033 14.1861 23.6033 12.2371 25.7693 12.2371 25.7693 10.0931 27.7073 10.0931 27.7073 12.2371 29.8743 12.2371 29.8743 14.1861 27.7073 14.1861 27.7073 16.3301"></polygon>
                </g>
                <g id="Group-171" opacity="0.371884301" transform="translate(63.000000, 121.000000)">
                    <polygon id="Fill-153" points="51.8484 7.2114 51.8484 5.0674 49.6824 5.0674 49.6824 3.1184 51.8484 3.1184 51.8484 0.9744 53.7864 0.9744 53.7864 3.1184 55.9534 3.1184 55.9534 5.0674 53.7864 5.0674 53.7864 7.2114"></polygon>
                    <polygon id="Fill-155" points="44.3264 25.4048 44.3264 24.0018 42.9084 24.0018 42.9084 22.7258 44.3264 22.7258 44.3264 21.3218 45.5954 21.3218 45.5954 22.7258 47.0134 22.7258 47.0134 24.0018 45.5954 24.0018 45.5954 25.4048"></polygon>
                    <polygon id="Fill-157" points="37.3904 9.5269 37.3904 8.1239 35.9724 8.1239 35.9724 6.8479 37.3904 6.8479 37.3904 5.4439 38.6594 5.4439 38.6594 6.8479 40.0774 6.8479 40.0774 8.1239 38.6594 8.1239 38.6594 9.5269"></polygon>
                    <polygon id="Fill-159" points="53.1067 20.7095 53.1067 19.7885 52.1767 19.7885 52.1767 18.9515 53.1067 18.9515 53.1067 18.0305 53.9397 18.0305 53.9397 18.9515 54.8707 18.9515 54.8707 19.7885 53.9397 19.7885 53.9397 20.7095"></polygon>
                    <polygon id="Fill-161" points="62.8172 16.5854 62.8172 14.4414 60.6512 14.4414 60.6512 12.4924 62.8172 12.4924 62.8172 10.3484 64.7552 10.3484 64.7552 12.4924 66.9222 12.4924 66.9222 14.4414 64.7552 14.4414 64.7552 16.5854"></polygon>
                    <polygon id="Fill-163" points="15.511 7.4854 15.511 5.3424 13.345 5.3424 13.345 3.3924 15.511 3.3924 15.511 1.2494 17.449 1.2494 17.449 3.3924 19.616 3.3924 19.616 5.3424 17.449 5.3424 17.449 7.4854"></polygon>
                    <polygon id="Fill-165" points="7.989 25.6792 7.989 24.2762 6.571 24.2762 6.571 23.0002 7.989 23.0002 7.989 21.5962 9.258 21.5962 9.258 23.0002 10.676 23.0002 10.676 24.2762 9.258 24.2762 9.258 25.6792"></polygon>
                    <polygon id="Fill-167" points="1.7874 10.5781 1.7874 9.6581 0.8564 9.6581 0.8564 8.8201 1.7874 8.8201 1.7874 7.8991 2.6204 7.8991 2.6204 8.8201 3.5504 8.8201 3.5504 9.6581 2.6204 9.6581 2.6204 10.5781"></polygon>
                    <polygon id="Fill-169" points="26.4798 16.8594 26.4798 14.7164 24.3138 14.7164 24.3138 12.7664 26.4798 12.7664 26.4798 10.6224 28.4178 10.6224 28.4178 12.7664 30.5848 12.7664 30.5848 14.7164 28.4178 14.7164 28.4178 16.8594"></polygon>
                </g>
                <g id="Group-171-Copy" opacity="0.616071429" transform="translate(30.000000, 78.000000)">
                    <polygon id="Fill-153" points="51.8484 7.2114 51.8484 5.0674 49.6824 5.0674 49.6824 3.1184 51.8484 3.1184 51.8484 0.9744 53.7864 0.9744 53.7864 3.1184 55.9534 3.1184 55.9534 5.0674 53.7864 5.0674 53.7864 7.2114"></polygon>
                    <polygon id="Fill-155" points="44.3264 25.4048 44.3264 24.0018 42.9084 24.0018 42.9084 22.7258 44.3264 22.7258 44.3264 21.3218 45.5954 21.3218 45.5954 22.7258 47.0134 22.7258 47.0134 24.0018 45.5954 24.0018 45.5954 25.4048"></polygon>
                    <polygon id="Fill-157" points="37.3904 9.5269 37.3904 8.1239 35.9724 8.1239 35.9724 6.8479 37.3904 6.8479 37.3904 5.4439 38.6594 5.4439 38.6594 6.8479 40.0774 6.8479 40.0774 8.1239 38.6594 8.1239 38.6594 9.5269"></polygon>
                    <polygon id="Fill-159" points="53.1067 20.7095 53.1067 19.7885 52.1767 19.7885 52.1767 18.9515 53.1067 18.9515 53.1067 18.0305 53.9397 18.0305 53.9397 18.9515 54.8707 18.9515 54.8707 19.7885 53.9397 19.7885 53.9397 20.7095"></polygon>
                    <polygon id="Fill-161" points="62.8172 16.5854 62.8172 14.4414 60.6512 14.4414 60.6512 12.4924 62.8172 12.4924 62.8172 10.3484 64.7552 10.3484 64.7552 12.4924 66.9222 12.4924 66.9222 14.4414 64.7552 14.4414 64.7552 16.5854"></polygon>
                    <polygon id="Fill-163" points="15.511 7.4854 15.511 5.3424 13.345 5.3424 13.345 3.3924 15.511 3.3924 15.511 1.2494 17.449 1.2494 17.449 3.3924 19.616 3.3924 19.616 5.3424 17.449 5.3424 17.449 7.4854"></polygon>
                    <polygon id="Fill-165" points="7.989 25.6792 7.989 24.2762 6.571 24.2762 6.571 23.0002 7.989 23.0002 7.989 21.5962 9.258 21.5962 9.258 23.0002 10.676 23.0002 10.676 24.2762 9.258 24.2762 9.258 25.6792"></polygon>
                    <polygon id="Fill-167" points="1.7874 10.5781 1.7874 9.6581 0.8564 9.6581 0.8564 8.8201 1.7874 8.8201 1.7874 7.8991 2.6204 7.8991 2.6204 8.8201 3.5504 8.8201 3.5504 9.6581 2.6204 9.6581 2.6204 10.5781"></polygon>
                    <polygon id="Fill-169" points="26.4798 16.8594 26.4798 14.7164 24.3138 14.7164 24.3138 12.7664 26.4798 12.7664 26.4798 10.6224 28.4178 10.6224 28.4178 12.7664 30.5848 12.7664 30.5848 14.7164 28.4178 14.7164 28.4178 16.8594"></polygon>
                </g>
                <g id="Group-190" opacity="0.770042783" transform="translate(186.000000, 0.000000)">
                    <polygon id="Fill-172" points="51.593 6.312 51.593 4.168 49.427 4.168 49.427 2.219 51.593 2.219 51.593 0.075 53.531 0.075 53.531 2.219 55.698 2.219 55.698 4.168 53.531 4.168 53.531 6.312"></polygon>
                    <polygon id="Fill-174" points="44.0711 24.5054 44.0711 23.1024 42.6531 23.1024 42.6531 21.8264 44.0711 21.8264 44.0711 20.4234 45.3401 20.4234 45.3401 21.8264 46.7581 21.8264 46.7581 23.1024 45.3401 23.1024 45.3401 24.5054"></polygon>
                    <polygon id="Fill-176" points="37.135 8.6274 37.135 7.2244 35.717 7.2244 35.717 5.9484 37.135 5.9484 37.135 4.5444 38.404 4.5444 38.404 5.9484 39.822 5.9484 39.822 7.2244 38.404 7.2244 38.404 8.6274"></polygon>
                    <polygon id="Fill-178" points="52.8513 19.8101 52.8513 18.8891 51.9213 18.8891 51.9213 18.0521 52.8513 18.0521 52.8513 17.1311 53.6843 17.1311 53.6843 18.0521 54.6143 18.0521 54.6143 18.8891 53.6843 18.8891 53.6843 19.8101"></polygon>
                    <polygon id="Fill-180" points="62.5618 15.686 62.5618 13.542 60.3958 13.542 60.3958 11.593 62.5618 11.593 62.5618 9.449 64.4998 9.449 64.4998 11.593 66.6668 11.593 66.6668 13.542 64.4998 13.542 64.4998 15.686"></polygon>
                    <polygon id="Fill-182" points="15.2556 6.5859 15.2556 4.4429 13.0896 4.4429 13.0896 2.4929 15.2556 2.4929 15.2556 0.3499 17.1936 0.3499 17.1936 2.4929 19.3606 2.4929 19.3606 4.4429 17.1936 4.4429 17.1936 6.5859"></polygon>
                    <polygon id="Fill-184" points="7.7337 24.7798 7.7337 23.3768 6.3157 23.3768 6.3157 22.1008 7.7337 22.1008 7.7337 20.6968 9.0027 20.6968 9.0027 22.1008 10.4207 22.1008 10.4207 23.3768 9.0027 23.3768 9.0027 24.7798"></polygon>
                    <polygon id="Fill-186" points="1.532 9.6787 1.532 8.7587 0.601 8.7587 0.601 7.9207 1.532 7.9207 1.532 6.9997 2.365 6.9997 2.365 7.9207 3.295 7.9207 3.295 8.7587 2.365 8.7587 2.365 9.6787"></polygon>
                    <polygon id="Fill-188" points="26.2244 15.96 26.2244 13.817 24.0584 13.817 24.0584 11.867 26.2244 11.867 26.2244 9.723 28.1624 9.723 28.1624 11.867 30.3294 11.867 30.3294 13.817 28.1624 13.817 28.1624 15.96"></polygon>
                </g>
                <g id="Group-209" transform="translate(208.000000, 67.000000)">
                    <polygon id="Fill-191" points="74.0193 9.561 74.0193 6.454 70.8793 6.454 70.8793 3.627 74.0193 3.627 74.0193 0.519 76.8293 0.519 76.8293 3.627 79.9703 3.627 79.9703 6.454 76.8293 6.454 76.8293 9.561"></polygon>
                    <polygon id="Fill-193" points="63.1145 35.937 63.1145 33.903 61.0585 33.903 61.0585 32.053 63.1145 32.053 63.1145 30.019 64.9535 30.019 64.9535 32.053 67.0095 32.053 67.0095 33.903 64.9535 33.903 64.9535 35.937"></polygon>
                    <polygon id="Fill-195" points="53.0584 12.9175 53.0584 10.8835 51.0024 10.8835 51.0024 9.0335 53.0584 9.0335 53.0584 6.9995 54.8974 6.9995 54.8974 9.0335 56.9534 9.0335 56.9534 10.8835 54.8974 10.8835 54.8974 12.9175"></polygon>
                    <polygon id="Fill-197" points="75.8435 29.1299 75.8435 27.7949 74.4945 27.7949 74.4945 26.5809 75.8435 26.5809 75.8435 25.2459 77.0515 25.2459 77.0515 26.5809 78.4005 26.5809 78.4005 27.7949 77.0515 27.7949 77.0515 29.1299"></polygon>
                    <polygon id="Fill-199" points="89.9217 23.1509 89.9217 20.0439 86.7807 20.0439 86.7807 17.2169 89.9217 17.2169 89.9217 14.1089 92.7317 14.1089 92.7317 17.2169 95.8727 17.2169 95.8727 20.0439 92.7317 20.0439 92.7317 23.1509"></polygon>
                    <polygon id="Fill-201" points="21.3386 9.9585 21.3386 6.8515 18.1976 6.8515 18.1976 4.0245 21.3386 4.0245 21.3386 0.9165 24.1486 0.9165 24.1486 4.0245 27.2896 4.0245 27.2896 6.8515 24.1486 6.8515 24.1486 9.9585"></polygon>
                    <polygon id="Fill-203" points="10.4334 36.3345 10.4334 34.3005 8.3774 34.3005 8.3774 32.4505 10.4334 32.4505 10.4334 30.4165 12.2724 30.4165 12.2724 32.4505 14.3294 32.4505 14.3294 34.3005 12.2724 34.3005 12.2724 36.3345"></polygon>
                    <polygon id="Fill-205" points="1.4426 14.4424 1.4426 13.1074 0.0936 13.1074 0.0936 11.8934 1.4426 11.8934 1.4426 10.5584 2.6496 10.5584 2.6496 11.8934 3.9986 11.8934 3.9986 13.1074 2.6496 13.1074 2.6496 14.4424"></polygon>
                    <polygon id="Fill-207" points="37.241 23.5483 37.241 20.4413 34.1 20.4413 34.1 17.6143 37.241 17.6143 37.241 14.5063 40.051 14.5063 40.051 17.6143 43.192 17.6143 43.192 20.4413 40.051 20.4413 40.051 23.5483"></polygon>
                </g>
                <g id="Group-228" opacity="0.803013393" transform="translate(274.000000, 152.000000)">
                    <polygon id="Fill-210" points="74.3777 9.0435 74.3777 5.9365 71.2377 5.9365 71.2377 3.1095 74.3777 3.1095 74.3777 0.0015 77.1877 0.0015 77.1877 3.1095 80.3287 3.1095 80.3287 5.9365 77.1877 5.9365 77.1877 9.0435"></polygon>
                    <polygon id="Fill-212" points="63.4729 35.4194 63.4729 33.3854 61.4169 33.3854 61.4169 31.5354 63.4729 31.5354 63.4729 29.5014 65.3119 29.5014 65.3119 31.5354 67.3679 31.5354 67.3679 33.3854 65.3119 33.3854 65.3119 35.4194"></polygon>
                    <polygon id="Fill-214" points="53.4168 12.3999 53.4168 10.3659 51.3608 10.3659 51.3608 8.5159 53.4168 8.5159 53.4168 6.4819 55.2558 6.4819 55.2558 8.5159 57.3118 8.5159 57.3118 10.3659 55.2558 10.3659 55.2558 12.3999"></polygon>
                    <polygon id="Fill-216" points="76.2024 28.6123 76.2024 27.2773 74.8534 27.2773 74.8534 26.0633 76.2024 26.0633 76.2024 24.7283 77.4094 24.7283 77.4094 26.0633 78.7584 26.0633 78.7584 27.2773 77.4094 27.2773 77.4094 28.6123"></polygon>
                    <polygon id="Fill-218" points="90.2801 22.6333 90.2801 19.5263 87.1391 19.5263 87.1391 16.6993 90.2801 16.6993 90.2801 13.5913 93.0901 13.5913 93.0901 16.6993 96.2311 16.6993 96.2311 19.5263 93.0901 19.5263 93.0901 22.6333"></polygon>
                    <polygon id="Fill-220" points="21.6971 9.4409 21.6971 6.3339 18.5561 6.3339 18.5561 3.5069 21.6971 3.5069 21.6971 0.3989 24.5071 0.3989 24.5071 3.5069 27.6481 3.5069 27.6481 6.3339 24.5071 6.3339 24.5071 9.4409"></polygon>
                    <polygon id="Fill-222" points="10.7923 35.8169 10.7923 33.7829 8.7363 33.7829 8.7363 31.9329 10.7923 31.9329 10.7923 29.8989 12.6313 29.8989 12.6313 31.9329 14.6873 31.9329 14.6873 33.7829 12.6313 33.7829 12.6313 35.8169"></polygon>
                    <polygon id="Fill-224" points="1.8011 13.9248 1.8011 12.5898 0.4521 12.5898 0.4521 11.3758 1.8011 11.3758 1.8011 10.0408 3.0081 10.0408 3.0081 11.3758 4.3581 11.3758 4.3581 12.5898 3.0081 12.5898 3.0081 13.9248"></polygon>
                    <polygon id="Fill-226" points="37.5994 23.0308 37.5994 19.9238 34.4584 19.9238 34.4584 17.0968 37.5994 17.0968 37.5994 13.9888 40.4094 13.9888 40.4094 17.0968 43.5504 17.0968 43.5504 19.9238 40.4094 19.9238 40.4094 23.0308"></polygon>
                </g>
                <g id="Group-228-Copy" opacity="0.620535714" transform="translate(0.000000, 150.000000)">
                    <polygon id="Fill-210" points="74.3777 9.0435 74.3777 5.9365 71.2377 5.9365 71.2377 3.1095 74.3777 3.1095 74.3777 0.0015 77.1877 0.0015 77.1877 3.1095 80.3287 3.1095 80.3287 5.9365 77.1877 5.9365 77.1877 9.0435"></polygon>
                    <polygon id="Fill-212" points="63.4729 35.4194 63.4729 33.3854 61.4169 33.3854 61.4169 31.5354 63.4729 31.5354 63.4729 29.5014 65.3119 29.5014 65.3119 31.5354 67.3679 31.5354 67.3679 33.3854 65.3119 33.3854 65.3119 35.4194"></polygon>
                    <polygon id="Fill-214" points="53.4168 12.3999 53.4168 10.3659 51.3608 10.3659 51.3608 8.5159 53.4168 8.5159 53.4168 6.4819 55.2558 6.4819 55.2558 8.5159 57.3118 8.5159 57.3118 10.3659 55.2558 10.3659 55.2558 12.3999"></polygon>
                    <polygon id="Fill-216" points="76.2024 28.6123 76.2024 27.2773 74.8534 27.2773 74.8534 26.0633 76.2024 26.0633 76.2024 24.7283 77.4094 24.7283 77.4094 26.0633 78.7584 26.0633 78.7584 27.2773 77.4094 27.2773 77.4094 28.6123"></polygon>
                    <polygon id="Fill-218" points="90.2801 22.6333 90.2801 19.5263 87.1391 19.5263 87.1391 16.6993 90.2801 16.6993 90.2801 13.5913 93.0901 13.5913 93.0901 16.6993 96.2311 16.6993 96.2311 19.5263 93.0901 19.5263 93.0901 22.6333"></polygon>
                    <polygon id="Fill-220" points="21.6971 9.4409 21.6971 6.3339 18.5561 6.3339 18.5561 3.5069 21.6971 3.5069 21.6971 0.3989 24.5071 0.3989 24.5071 3.5069 27.6481 3.5069 27.6481 6.3339 24.5071 6.3339 24.5071 9.4409"></polygon>
                    <polygon id="Fill-222" points="10.7923 35.8169 10.7923 33.7829 8.7363 33.7829 8.7363 31.9329 10.7923 31.9329 10.7923 29.8989 12.6313 29.8989 12.6313 31.9329 14.6873 31.9329 14.6873 33.7829 12.6313 33.7829 12.6313 35.8169"></polygon>
                    <polygon id="Fill-226" points="37.5994 23.0308 37.5994 19.9238 34.4584 19.9238 34.4584 17.0968 37.5994 17.0968 37.5994 13.9888 40.4094 13.9888 40.4094 17.0968 43.5504 17.0968 43.5504 19.9238 40.4094 19.9238 40.4094 23.0308"></polygon>
                </g>
                <g id="Group-247" opacity="0.293619792" transform="translate(287.000000, 190.000000)">
                    <polygon id="Fill-229" points="74.4534 9.7139 74.4534 6.6069 71.3134 6.6069 71.3134 3.7799 74.4534 3.7799 74.4534 0.6719 77.2634 0.6719 77.2634 3.7799 80.4044 3.7799 80.4044 6.6069 77.2634 6.6069 77.2634 9.7139"></polygon>
                    <polygon id="Fill-231" points="63.5486 36.0898 63.5486 34.0558 61.4926 34.0558 61.4926 32.2058 63.5486 32.2058 63.5486 30.1718 65.3876 30.1718 65.3876 32.2058 67.4436 32.2058 67.4436 34.0558 65.3876 34.0558 65.3876 36.0898"></polygon>
                    <polygon id="Fill-233" points="53.4925 13.0703 53.4925 11.0363 51.4365 11.0363 51.4365 9.1863 53.4925 9.1863 53.4925 7.1523 55.3315 7.1523 55.3315 9.1863 57.3875 9.1863 57.3875 11.0363 55.3315 11.0363 55.3315 13.0703"></polygon>
                    <polygon id="Fill-235" points="76.2781 29.2827 76.2781 27.9477 74.9291 27.9477 74.9291 26.7337 76.2781 26.7337 76.2781 25.3987 77.4851 25.3987 77.4851 26.7337 78.8341 26.7337 78.8341 27.9477 77.4851 27.9477 77.4851 29.2827"></polygon>
                    <polygon id="Fill-237" points="90.3557 23.3037 90.3557 20.1967 87.2147 20.1967 87.2147 17.3697 90.3557 17.3697 90.3557 14.2617 93.1657 14.2617 93.1657 17.3697 96.3067 17.3697 96.3067 20.1967 93.1657 20.1967 93.1657 23.3037"></polygon>
                    <polygon id="Fill-239" points="21.7727 10.1113 21.7727 7.0043 18.6327 7.0043 18.6327 4.1773 21.7727 4.1773 21.7727 1.0693 24.5827 1.0693 24.5827 4.1773 27.7237 4.1773 27.7237 7.0043 24.5827 7.0043 24.5827 10.1113"></polygon>
                    <polygon id="Fill-241" points="10.868 36.4873 10.868 34.4533 8.812 34.4533 8.812 32.6033 10.868 32.6033 10.868 30.5693 12.707 30.5693 12.707 32.6033 14.763 32.6033 14.763 34.4533 12.707 34.4533 12.707 36.4873"></polygon>
                    <polygon id="Fill-243" points="1.8767 14.5952 1.8767 13.2602 0.5277 13.2602 0.5277 12.0462 1.8767 12.0462 1.8767 10.7112 3.0837 10.7112 3.0837 12.0462 4.4337 12.0462 4.4337 13.2602 3.0837 13.2602 3.0837 14.5952"></polygon>
                    <polygon id="Fill-245" points="37.6751 23.7012 37.6751 20.5942 34.5341 20.5942 34.5341 17.7672 37.6751 17.7672 37.6751 14.6592 40.4851 14.6592 40.4851 17.7672 43.6261 17.7672 43.6261 20.5942 40.4851 20.5942 40.4851 23.7012"></polygon>
                </g>
                <g id="Group-266" opacity="0.473330543" transform="translate(135.000000, 86.000000)">
                    <polygon id="Fill-248" points="74.4426 9.5747 74.4426 6.4677 71.3026 6.4677 71.3026 3.6407 74.4426 3.6407 74.4426 0.5327 77.2526 0.5327 77.2526 3.6407 80.3936 3.6407 80.3936 6.4677 77.2526 6.4677 77.2526 9.5747"></polygon>
                    <polygon id="Fill-250" points="63.5379 35.9512 63.5379 33.9172 61.4819 33.9172 61.4819 32.0672 63.5379 32.0672 63.5379 30.0332 65.3769 30.0332 65.3769 32.0672 67.4329 32.0672 67.4329 33.9172 65.3769 33.9172 65.3769 35.9512"></polygon>
                    <polygon id="Fill-252" points="53.4817 12.9316 53.4817 10.8976 51.4257 10.8976 51.4257 9.0476 53.4817 9.0476 53.4817 7.0136 55.3207 7.0136 55.3207 9.0476 57.3767 9.0476 57.3767 10.8976 55.3207 10.8976 55.3207 12.9316"></polygon>
                    <polygon id="Fill-254" points="76.2669 29.1436 76.2669 27.8096 74.9179 27.8096 74.9179 26.5946 76.2669 26.5946 76.2669 25.2596 77.4739 25.2596 77.4739 26.5946 78.8239 26.5946 78.8239 27.8096 77.4739 27.8096 77.4739 29.1436"></polygon>
                    <polygon id="Fill-256" points="90.345 23.1646 90.345 20.0576 87.204 20.0576 87.204 17.2306 90.345 17.2306 90.345 14.1226 93.155 14.1226 93.155 17.2306 96.296 17.2306 96.296 20.0576 93.155 20.0576 93.155 23.1646"></polygon>
                    <polygon id="Fill-258" points="21.762 9.9722 21.762 6.8652 18.621 6.8652 18.621 4.0382 21.762 4.0382 21.762 0.9302 24.572 0.9302 24.572 4.0382 27.713 4.0382 27.713 6.8652 24.572 6.8652 24.572 9.9722"></polygon>
                    <polygon id="Fill-260" points="10.8567 36.3486 10.8567 34.3146 8.8007 34.3146 8.8007 32.4646 10.8567 32.4646 10.8567 30.4306 12.6957 30.4306 12.6957 32.4646 14.7527 32.4646 14.7527 34.3146 12.6957 34.3146 12.6957 36.3486"></polygon>
                    <polygon id="Fill-262" points="1.866 14.4561 1.866 13.1211 0.517 13.1211 0.517 11.9071 1.866 11.9071 1.866 10.5721 3.073 10.5721 3.073 11.9071 4.422 11.9071 4.422 13.1211 3.073 13.1211 3.073 14.4561"></polygon>
                    <polygon id="Fill-264" points="37.6643 23.562 37.6643 20.455 34.5233 20.455 34.5233 17.628 37.6643 17.628 37.6643 14.52 40.4743 14.52 40.4743 17.628 43.6153 17.628 43.6153 20.455 40.4743 20.455 40.4743 23.562"></polygon>
                </g>
                <g id="Group-285" opacity="0.608630952" transform="translate(246.000000, 23.000000)">
                    <polygon id="Fill-267" points="84.2454 10.6689 84.2454 7.1659 80.7044 7.1659 80.7044 3.9789 84.2454 3.9789 84.2454 0.4739 87.4134 0.4739 87.4134 3.9789 90.9554 3.9789 90.9554 7.1659 87.4134 7.1659 87.4134 10.6689"></polygon>
                    <polygon id="Fill-269" points="71.9495 40.4092 71.9495 38.1162 69.6315 38.1162 69.6315 36.0302 71.9495 36.0302 71.9495 33.7362 74.0235 33.7362 74.0235 36.0302 76.3415 36.0302 76.3415 38.1162 74.0235 38.1162 74.0235 40.4092"></polygon>
                    <polygon id="Fill-271" points="60.6111 14.4541 60.6111 12.1611 58.2931 12.1611 58.2931 10.0751 60.6111 10.0751 60.6111 7.7811 62.6851 7.7811 62.6851 10.0751 65.0031 10.0751 65.0031 12.1611 62.6851 12.1611 62.6851 14.4541"></polygon>
                    <polygon id="Fill-273" points="86.3025 32.7339 86.3025 31.2289 84.7815 31.2289 84.7815 29.8599 86.3025 29.8599 86.3025 28.3549 87.6635 28.3549 87.6635 29.8599 89.1845 29.8599 89.1845 31.2289 87.6635 31.2289 87.6635 32.7339"></polygon>
                    <polygon id="Fill-275" points="102.1756 25.9922 102.1756 22.4892 98.6346 22.4892 98.6346 19.3022 102.1756 19.3022 102.1756 15.7972 105.3436 15.7972 105.3436 19.3022 108.8846 19.3022 108.8846 22.4892 105.3436 22.4892 105.3436 25.9922"></polygon>
                    <polygon id="Fill-277" points="24.846 11.1172 24.846 7.6142 21.305 7.6142 21.305 4.4272 24.846 4.4272 24.846 0.9222 28.014 0.9222 28.014 4.4272 31.556 4.4272 31.556 7.6142 28.014 7.6142 28.014 11.1172"></polygon>
                    <polygon id="Fill-279" points="12.5506 40.8574 12.5506 38.5644 10.2326 38.5644 10.2326 36.4784 12.5506 36.4784 12.5506 34.1844 14.6246 34.1844 14.6246 36.4784 16.9426 36.4784 16.9426 38.5644 14.6246 38.5644 14.6246 40.8574"></polygon>
                    <polygon id="Fill-281" points="2.4129 16.1729 2.4129 14.6679 0.8919 14.6679 0.8919 13.2989 2.4129 13.2989 2.4129 11.7939 3.7739 11.7939 3.7739 13.2989 5.2949 13.2989 5.2949 14.6679 3.7739 14.6679 3.7739 16.1729"></polygon>
                    <polygon id="Fill-283" points="42.7762 26.4404 42.7762 22.9374 39.2352 22.9374 39.2352 19.7504 42.7762 19.7504 42.7762 16.2454 45.9442 16.2454 45.9442 19.7504 49.4862 19.7504 49.4862 22.9374 45.9442 22.9374 45.9442 26.4404"></polygon>
                </g>
            </g>
        </g>
    </g>
</svg>