<?xml version="1.0" encoding="UTF-8"?>
<svg width="8px" height="18px" viewBox="0 0 8 18" version="1.1" xmlns="http://www.w3.org/2000/svg" xmlns:xlink="http://www.w3.org/1999/xlink">
    <!-- Generator: Sketch 52 (66869) - http://www.bohemiancoding.com/sketch -->
    <title>Fill 4 Copy</title>
    <desc>Created with Sketch.</desc>
    <g id="UI" stroke="none" stroke-width="1" fill="none" fill-rule="evenodd">
        <g id="Inicio-de-sesión-con-cuenta" transform="translate(-106.000000, -527.000000)" fill="#FEFEFE">
            <g id="Group-4" transform="translate(78.000000, 519.759000)">
                <path d="M35.672,8 C35.678,8.051 35.689,8.101 35.689,8.15 C35.69,9.009 35.69,9.868 35.689,10.727 C35.689,10.77 35.681,10.812 35.676,10.875 L35.461,10.875 C34.946,10.875 34.43,10.874 33.915,10.875 C33.427,10.877 33.104,11.198 33.104,11.681 C33.104,12.189 33.104,12.698 33.105,13.207 C33.105,13.274 33.11,13.342 33.114,13.427 L35.703,13.427 C35.596,14.365 35.49,15.282 35.383,16.21 L33.079,16.21 L33.079,24.399 L29.671,24.399 L29.671,16.204 C29.174,16.204 28.697,16.206 28.221,16.202 C28.147,16.202 28.074,16.181 28,16.169 L28,13.459 C28.138,13.449 28.276,13.432 28.414,13.431 C28.83,13.427 29.247,13.43 29.676,13.43 C29.676,12.631 29.685,11.857 29.674,11.083 C29.654,9.791 30.317,8.572 31.73,8.191 C32.022,8.113 32.322,8.063 32.618,8 L35.672,8 Z" id="Fill-4-Copy"></path>
            </g>
        </g>
    </g>
</svg>