<?xml version="1.0" encoding="UTF-8"?>
<svg width="99px" height="121px" viewBox="0 0 99 121" version="1.1" xmlns="http://www.w3.org/2000/svg" xmlns:xlink="http://www.w3.org/1999/xlink">
    <!-- Generator: Sketch 52 (66869) - http://www.bohemiancoding.com/sketch -->
    <title>Logo-curvas</title>
    <desc>Created with Sketch.</desc>
    <defs>
        <polygon id="path-1" points="0 0.890878696 14.1109994 0.890878696 14.1109994 22.1 0 22.1"></polygon>
        <polygon id="path-3" points="0 120.138 98.666 120.138 98.666 0 0 0"></polygon>
    </defs>
    <g id="UI" stroke="none" stroke-width="1" fill="none" fill-rule="evenodd">
        <g id="Inicio-de-sesión-con-cuenta" transform="translate(-138.000000, -79.000000)">
            <g id="Logo-curvas" transform="translate(138.000000, 79.000000)">
                <g id="Group-65">
                    <g id="Group-3" transform="translate(0.000000, 90.138000)">
                        <mask id="mask-2" fill="white">
                            <use xlink:href="#path-1"></use>
                        </mask>
                        <g id="Clip-2"></g>
                        <path d="M6.0562,4.7305 L7.5942,1.5585 C8.0512,0.6445 11.3682,0.6925 10.7192,1.5585 L8.2432,4.7305 C7.7632,5.4035 5.6962,5.4515 6.0562,4.7305 Z M8.9882,15.5215 C8.4352,13.9825 7.8102,12.4445 7.0662,10.8345 C6.2972,12.4445 5.6722,13.9825 5.1192,15.5215 L8.9882,15.5215 Z M10.8872,21.3605 C10.5262,20.1595 10.1662,19.0295 9.8062,17.8995 L4.3022,17.8995 C3.9412,19.0295 3.5812,20.1595 3.2212,21.3605 C2.9322,22.3465 -0.3118,22.3465 0.0242,21.3605 C1.8272,15.9055 5.2152,8.3115 6.7292,6.7015 C6.8972,6.5565 7.2102,6.5565 7.3782,6.7015 C8.8922,8.3115 12.2812,15.9055 14.0832,21.3605 C14.4442,22.3465 11.1752,22.3225 10.8872,21.3605 Z" id="Fill-1" fill="#56AA6E" mask="url(#mask-2)"></path>
                    </g>
                    <path d="M21.919,103.5442 C20.525,103.6162 19.396,103.9762 18.29,105.1542 L18.29,111.4992 C18.29,112.4602 15.455,112.4602 15.455,111.4992 L15.455,101.5012 C15.455,100.5882 17.737,100.6122 17.906,101.2852 L18.266,102.7512 C19.179,101.6212 20.573,100.9002 22.448,100.8522 C23.337,100.8282 22.76,103.5202 21.919,103.5442" id="Fill-4" fill="#56AA6E"></path>
                    <path d="M32.7583,106.452 C32.7583,104.337 31.8453,103.208 30.0673,103.232 C29.1293,103.232 28.2643,103.616 27.4953,104.337 L27.4953,108.567 C28.2403,109.336 29.1293,109.744 30.0673,109.744 C31.8453,109.768 32.7583,108.639 32.7583,106.452 M35.5703,106.452 C35.5703,109.937 33.8633,112.196 31.2923,112.196 C29.7543,112.196 28.3603,111.643 27.3753,110.754 L27.0143,111.715 C26.7503,112.388 24.6833,112.46 24.6833,111.547 L24.6833,97.127 C24.6833,95.998 27.4953,94.964 27.4953,96.094 L27.4953,102.03 C28.4803,101.213 29.8263,100.756 31.2923,100.756 C33.8633,100.756 35.5703,103.039 35.5703,106.452" id="Fill-6" fill="#56AA6E"></path>
                    <path d="M45.8569,106.4998 C45.8569,104.1448 44.7989,102.8468 42.9969,102.8468 C41.1949,102.8468 40.1369,104.1448 40.1369,106.4998 C40.1369,108.8068 41.1949,110.1048 42.9969,110.1048 C44.7989,110.1048 45.8569,108.8068 45.8569,106.4998 M37.3249,106.4998 C37.3249,102.8708 39.4159,100.7318 42.9969,100.7318 C46.5779,100.7318 48.6689,102.8708 48.6689,106.4998 C48.6689,110.1048 46.5779,112.2198 42.9969,112.2198 C39.4159,112.2198 37.3249,110.1048 37.3249,106.4998" id="Fill-8" fill="#56AA6E"></path>
                    <path d="M55.8794,111.763 C55.1344,112.028 54.3894,112.22 53.6924,112.22 C52.2024,112.22 51.0254,111.379 51.0254,108.951 L51.0254,97.392 C51.0254,96.238 53.8364,95.036 53.8364,96.19 L53.8364,108.279 C53.8364,109.312 54.1014,109.768 54.7504,109.768 C55.0384,109.768 55.4224,109.672 55.8794,109.528 C56.8884,109.144 56.9124,111.306 55.8794,111.763" id="Fill-10" fill="#56AA6E"></path>
                    <path d="M65.3008,98.2567 C65.3008,97.1277 68.1368,95.9257 68.1368,97.0557 L68.1368,111.4987 C68.1368,112.4607 65.3008,112.4607 65.3008,111.4987 L65.3008,98.2567 Z" id="Fill-12" fill="#DB4739"></path>
                    <path d="M82.4365,104.4813 C82.4365,101.1413 80.8985,99.1943 78.2785,99.1943 C75.6355,99.1943 74.1215,101.1413 74.1215,104.4813 C74.1215,107.7973 75.6355,109.7443 78.2785,109.7443 C80.8985,109.7443 82.4365,107.7973 82.4365,104.4813 M71.1655,104.4813 C71.1655,99.6033 73.8085,96.7183 78.2785,96.7183 C82.7485,96.7183 85.3925,99.6033 85.3925,104.4813 C85.3925,109.3353 82.7485,112.2203 78.2785,112.2203 C73.8085,112.2203 71.1655,109.3353 71.1655,104.4813" id="Fill-14" fill="#DB4739"></path>
                    <path d="M97.9624,99.3865 L93.5884,99.3865 L93.5884,111.4985 C93.5884,112.4605 90.5604,112.4605 90.5604,111.4985 L90.5604,99.3865 L87.1714,99.3865 C86.0424,99.3865 84.8404,96.9105 85.9704,96.9105 L97.9624,96.9105 C98.8994,96.9105 98.8994,99.3865 97.9624,99.3865" id="Fill-16" fill="#DB4739"></path>
                    <polygon id="Fill-18" fill="#737373" points="8.4341 118.1317 8.4341 118.3847 6.3201 118.3847 6.3201 119.8077 8.5991 119.8077 8.5991 120.0757 6.0461 120.0757 6.0461 116.4657 8.5381 116.4657 8.5381 116.7287 6.3201 116.7287 6.3201 118.1317"></polygon>
                    <polygon id="Fill-20" fill="#737373" points="9.8789 119.8128 11.9109 119.8128 11.9109 120.0758 9.6009 120.0758 9.6009 116.4658 9.8789 116.4658"></polygon>
                    <mask id="mask-4" fill="white">
                        <use xlink:href="#path-3"></use>
                    </mask>
                    <g id="Clip-23"></g>
                    <polygon id="Fill-22" fill="#737373" mask="url(#mask-4)" points="14.636 120.076 14.909 120.076 14.909 116.466 14.636 116.466"></polygon>
                    <polygon id="Fill-24" fill="#737373" mask="url(#mask-4)" points="18.6431 119.452 18.6431 116.466 18.9161 116.466 18.9161 120.076 18.8081 120.076 16.3741 117.095 16.3741 120.076 16.0961 120.076 16.0961 116.466 16.2141 116.466"></polygon>
                    <polygon id="Fill-25" fill="#737373" mask="url(#mask-4)" points="19.8311 116.7186 19.8311 116.4706 22.7191 116.4706 22.7191 116.7186 21.4141 116.7186 21.4141 120.0756 21.1361 120.0756 21.1361 116.7186"></polygon>
                    <polygon id="Fill-26" fill="#737373" mask="url(#mask-4)" points="26.0205 118.1317 26.0205 118.3847 23.9065 118.3847 23.9065 119.8077 26.1855 119.8077 26.1855 120.0757 23.6325 120.0757 23.6325 116.4657 26.1245 116.4657 26.1245 116.7287 23.9065 116.7287 23.9065 118.1317"></polygon>
                    <path d="M28.7495,118.4461 C29.3785,118.4461 29.6575,118.0901 29.6625,117.5851 C29.6675,117.1621 29.3785,116.7231 28.7805,116.7231 L27.4705,116.7231 L27.4705,118.4461 L28.7495,118.4461 Z M29.7035,120.0761 L28.4555,118.7091 L27.4705,118.7091 L27.4705,120.0761 L27.1925,120.0761 L27.1925,116.4661 L28.7805,116.4661 C29.5645,116.4661 29.9615,117.0281 29.9665,117.5901 C29.9725,118.1781 29.5855,118.6941 28.7965,118.6941 L30.0695,120.0761 L29.7035,120.0761 Z" id="Fill-27" fill="#737373" mask="url(#mask-4)"></path>
                    <polygon id="Fill-28" fill="#737373" mask="url(#mask-4)" points="33.4746 119.452 33.4746 116.466 33.7476 116.466 33.7476 120.076 33.6396 120.076 31.2056 117.095 31.2056 120.076 30.9276 120.076 30.9276 116.466 31.0456 116.466"></polygon>
                    <polygon id="Fill-29" fill="#737373" mask="url(#mask-4)" points="37.3286 118.1317 37.3286 118.3847 35.2146 118.3847 35.2146 119.8077 37.4936 119.8077 37.4936 120.0757 34.9406 120.0757 34.9406 116.4657 37.4326 116.4657 37.4326 116.7287 35.2146 116.7287 35.2146 118.1317"></polygon>
                    <polygon id="Fill-30" fill="#737373" mask="url(#mask-4)" points="38.4282 116.7186 38.4282 116.4706 41.3162 116.4706 41.3162 116.7186 40.0112 116.7186 40.0112 120.0756 39.7332 120.0756 39.7332 116.7186"></polygon>
                    <path d="M44.2886,119.8079 L45.2316,119.8079 C46.3056,119.8079 46.8006,119.0029 46.7846,118.2299 C46.7686,117.4759 46.2736,116.7289 45.2316,116.7289 L44.2886,116.7289 L44.2886,119.8079 Z M47.0626,118.2299 C47.0836,119.1479 46.4956,120.0759 45.2316,120.0759 L44.0096,120.0759 L44.0096,116.4659 L45.2316,116.4659 C46.4546,116.4659 47.0426,117.3429 47.0626,118.2299 Z" id="Fill-31" fill="#737373" mask="url(#mask-4)"></path>
                    <polygon id="Fill-32" fill="#737373" mask="url(#mask-4)" points="50.4678 118.1317 50.4678 118.3847 48.3538 118.3847 48.3538 119.8077 50.6328 119.8077 50.6328 120.0757 48.0798 120.0757 48.0798 116.4657 50.5718 116.4657 50.5718 116.7287 48.3538 116.7287 48.3538 118.1317"></polygon>
                    <polygon id="Fill-33" fill="#737373" mask="url(#mask-4)" points="53.7183 119.8128 55.7503 119.8128 55.7503 120.0758 53.4403 120.0758 53.4403 116.4658 53.7183 116.4658"></polygon>
                    <path d="M56.6748,118.2708 C56.6798,119.0858 57.1958,119.8798 58.2218,119.8798 C59.2538,119.8798 59.7748,119.0858 59.7748,118.2708 C59.7748,117.4358 59.2588,116.6668 58.2218,116.6668 C57.1858,116.6668 56.6698,117.4198 56.6748,118.2708 M60.0428,118.2758 C60.0378,119.2248 59.4338,120.1378 58.2218,120.1378 C57.0098,120.1378 56.4018,119.2198 56.4018,118.2658 C56.4018,117.2958 57.0048,116.4088 58.2218,116.4088 C59.4388,116.4088 60.0478,117.3008 60.0428,118.2758" id="Fill-34" fill="#737373" mask="url(#mask-4)"></path>
                    <path d="M62.4419,116.6722 C62.0189,116.6722 61.3489,116.8272 61.3489,117.4042 C61.3489,117.8632 61.8439,117.9712 62.4519,118.0852 C63.1489,118.2192 63.8709,118.3432 63.8709,119.1222 C63.8649,119.9372 63.0459,120.1322 62.4419,120.1322 C61.8799,120.1322 61.2399,119.9012 60.9619,119.3492 L61.2099,119.2252 C61.4309,119.6632 61.9989,119.8802 62.4419,119.8802 C62.8849,119.8802 63.5919,119.7562 63.5919,119.1162 C63.5969,118.5752 62.9989,118.4562 62.4059,118.3432 C61.7459,118.2142 61.0699,118.0802 61.0699,117.4152 C61.0549,116.6512 61.8489,116.4142 62.4419,116.4142 C62.9579,116.4142 63.4059,116.4972 63.7619,117.0282 L63.5349,117.1622 C63.2729,116.7392 62.8499,116.6772 62.4419,116.6722" id="Fill-35" fill="#737373" mask="url(#mask-4)"></path>
                    <path d="M67.8843,116.0994 L68.1323,116.0994 L68.6063,115.4654 L68.6063,115.4604 L68.2713,115.4604 L67.8843,116.0784 L67.8843,116.0994 Z M67.0803,118.9314 L69.0193,118.9314 L68.0493,116.7344 L67.0803,118.9314 Z M69.8233,120.0764 L69.5243,120.0764 L69.1273,119.1884 L66.9713,119.1884 L66.5793,120.0764 L66.2803,120.0764 L67.9003,116.4654 L68.2043,116.4654 L69.8233,120.0764 Z" id="Fill-36" fill="#737373" mask="url(#mask-4)"></path>
                    <path d="M72.2329,118.4461 C72.8619,118.4461 73.1409,118.0901 73.1459,117.5851 C73.1509,117.1621 72.8619,116.7231 72.2639,116.7231 L70.9539,116.7231 L70.9539,118.4461 L72.2329,118.4461 Z M73.1869,120.0761 L71.9389,118.7091 L70.9539,118.7091 L70.9539,120.0761 L70.6759,120.0761 L70.6759,116.4661 L72.2639,116.4661 C73.0479,116.4661 73.4449,117.0281 73.4499,117.5901 C73.4559,118.1781 73.0689,118.6941 72.2799,118.6941 L73.5529,120.0761 L73.1869,120.0761 Z" id="Fill-37" fill="#737373" mask="url(#mask-4)"></path>
                    <path d="M75.8906,119.8079 C76.3446,119.8079 76.9276,119.6999 76.9276,119.1269 C76.9226,118.5649 76.4116,118.3639 75.9266,118.3639 L74.6886,118.3639 L74.6886,119.8079 L75.8906,119.8079 Z M75.9266,118.1009 C76.3596,118.1009 76.8136,117.9669 76.8136,117.4509 C76.8136,116.9249 76.3396,116.7029 75.8906,116.7029 L74.6886,116.7029 L74.6886,118.1009 L75.9266,118.1009 Z M77.0766,117.4509 C77.0766,117.8219 76.8496,118.1109 76.4886,118.2249 C76.9426,118.3489 77.2006,118.7149 77.2006,119.1319 C77.2006,119.8749 76.5096,120.0759 75.8906,120.0759 L74.4106,120.0759 L74.4106,116.4659 L75.8906,116.4659 C76.4986,116.4659 77.0766,116.7649 77.0766,117.4509 Z" id="Fill-38" fill="#737373" mask="url(#mask-4)"></path>
                    <path d="M78.4292,118.2708 C78.4342,119.0858 78.9502,119.8798 79.9762,119.8798 C81.0082,119.8798 81.5292,119.0858 81.5292,118.2708 C81.5292,117.4358 81.0132,116.6668 79.9762,116.6668 C78.9402,116.6668 78.4242,117.4198 78.4292,118.2708 M81.7972,118.2758 C81.7922,119.2248 81.1882,120.1378 79.9762,120.1378 C78.7642,120.1378 78.1562,119.2198 78.1562,118.2658 C78.1562,117.2958 78.7592,116.4088 79.9762,116.4088 C81.1932,116.4088 81.8022,117.3008 81.7972,118.2758" id="Fill-39" fill="#737373" mask="url(#mask-4)"></path>
                    <polygon id="Fill-40" fill="#737373" mask="url(#mask-4)" points="83.1231 119.8128 85.1551 119.8128 85.1551 120.0758 82.8451 120.0758 82.8451 116.4658 83.1231 116.4658"></polygon>
                    <polygon id="Fill-41" fill="#737373" mask="url(#mask-4)" points="88.457 118.1317 88.457 118.3847 86.343 118.3847 86.343 119.8077 88.622 119.8077 88.622 120.0757 86.069 120.0757 86.069 116.4657 88.561 116.4657 88.561 116.7287 86.343 116.7287 86.343 118.1317"></polygon>
                    <path d="M90.98,116.6722 C90.557,116.6722 89.887,116.8272 89.887,117.4042 C89.887,117.8632 90.382,117.9712 90.99,118.0852 C91.687,118.2192 92.409,118.3432 92.409,119.1222 C92.403,119.9372 91.584,120.1322 90.98,120.1322 C90.418,120.1322 89.778,119.9012 89.5,119.3492 L89.748,119.2252 C89.969,119.6632 90.537,119.8802 90.98,119.8802 C91.423,119.8802 92.13,119.7562 92.13,119.1162 C92.135,118.5752 91.537,118.4562 90.944,118.3432 C90.284,118.2142 89.608,118.0802 89.608,117.4152 C89.593,116.6512 90.387,116.4142 90.98,116.4142 C91.496,116.4142 91.944,116.4972 92.3,117.0282 L92.073,117.1622 C91.811,116.7392 91.388,116.6772 90.98,116.6722" id="Fill-42" fill="#737373" mask="url(#mask-4)"></path>
                    <polygon id="Fill-43" fill="#8F3223" mask="url(#mask-4)" points="53.7778 90.9207 39.7858 90.9207 43.3118 59.4137 53.7778 59.4137"></polygon>
                    <polygon id="Fill-44" fill="#A8462C" mask="url(#mask-4)" points="59.3267 90.9207 46.4747 90.9207 46.4747 59.4137 55.9467 59.4137"></polygon>
                    <path d="M16.4561,61.0633 C15.1371,61.0633 14.0681,59.9933 14.0681,58.6723 C14.0681,57.3523 15.1371,56.2823 16.4561,56.2823 C17.7761,56.2823 18.8451,57.3523 18.8451,58.6723 C18.8451,59.9933 17.7761,61.0633 16.4561,61.0633 M16.4561,51.5013 C12.4981,51.5013 9.2901,54.7113 9.2901,58.6723 C9.2901,62.6333 12.4981,65.8443 16.4561,65.8443 C20.4141,65.8443 23.6221,62.6333 23.6221,58.6723 C23.6221,54.7113 20.4141,51.5013 16.4561,51.5013" id="Fill-45" fill="#2CA06C" mask="url(#mask-4)"></path>
                    <path d="M39.7603,58.6732 C37.1303,58.6732 34.9983,56.5392 34.9983,53.9072 C34.9983,51.2752 37.1303,49.1402 39.7603,49.1402 C42.3903,49.1402 44.5233,51.2752 44.5233,53.9072 C44.5233,56.5392 42.3903,58.6732 39.7603,58.6732 M39.6073,39.6092 C31.7163,39.6092 25.3193,46.0102 25.3193,53.9072 C25.3193,55.7332 25.6653,57.4772 26.2883,59.0832 C26.8773,58.8222 27.5273,58.6742 28.2133,58.6742 C30.8433,58.6742 32.9753,60.8092 32.9753,63.4412 C32.9753,64.4302 32.6743,65.3492 32.1583,66.1102 C34.3273,67.4392 36.8783,68.2062 39.6073,68.2062 C47.4973,68.2062 53.8943,61.8032 53.8943,53.9072 C53.8943,46.0102 47.4973,39.6092 39.6073,39.6092" id="Fill-46" fill="#208D5C" mask="url(#mask-4)"></path>
                    <path d="M28.2129,68.2059 C25.5839,68.2059 23.4509,66.0719 23.4509,63.4399 C23.4509,60.8079 25.5839,58.6729 28.2129,58.6729 C30.8429,58.6729 32.9759,60.8079 32.9759,63.4399 C32.9759,66.0719 30.8429,68.2059 28.2129,68.2059 M39.6069,58.6729 C36.9779,58.6729 34.8449,56.5389 34.8449,53.9069 C34.8449,52.9179 35.1469,51.9989 35.6619,51.2379 C33.4929,49.9089 30.9419,49.1419 28.2129,49.1419 C20.3219,49.1419 13.9249,55.5429 13.9249,63.4399 C13.9249,71.3359 20.3219,77.7389 28.2129,77.7389 C36.1039,77.7389 42.5009,71.3359 42.5009,63.4399 C42.5009,61.6139 42.1549,59.8699 41.5309,58.2649 C40.9419,58.5249 40.2929,58.6729 39.6069,58.6729" id="Fill-47" fill="#208D5C" mask="url(#mask-4)"></path>
                    <path d="M82.2652,61.0428 C80.9462,61.0428 79.8772,59.9728 79.8772,58.6528 C79.8772,57.3328 80.9462,56.2618 82.2652,56.2618 C83.5842,56.2618 84.6542,57.3328 84.6542,58.6528 C84.6542,59.9728 83.5842,61.0428 82.2652,61.0428 M82.2652,51.4808 C78.3072,51.4808 75.0992,54.6918 75.0992,58.6528 C75.0992,62.6128 78.3072,65.8238 82.2652,65.8238 C86.2232,65.8238 89.4312,62.6128 89.4312,58.6528 C89.4312,54.6918 86.2232,51.4808 82.2652,51.4808" id="Fill-48" fill="#2CA06C" mask="url(#mask-4)"></path>
                    <path d="M70.4946,68.2059 C69.0156,68.2059 67.6936,67.5309 66.8196,66.4719 C66.1406,65.6469 65.7326,64.5909 65.7326,63.4399 C65.7326,60.8079 67.8646,58.6729 70.4946,58.6729 C71.9566,58.6729 73.2646,59.3339 74.1376,60.3729 C74.8356,61.2019 75.2576,62.2709 75.2576,63.4399 C75.2576,66.0719 73.1246,68.2059 70.4946,68.2059 M70.4946,49.1409 C67.6296,49.1409 64.9636,49.9879 62.7266,51.4419 C63.1636,52.1619 63.4196,53.0029 63.4196,53.9069 C63.4196,56.5389 61.2866,58.6729 58.6566,58.6729 C58.1176,58.6729 57.6006,58.5789 57.1176,58.4139 C56.5306,59.9769 56.2076,61.6699 56.2076,63.4399 C56.2076,71.3359 62.6046,77.7389 70.4946,77.7389 C78.3856,77.7389 84.7826,71.3359 84.7826,63.4399 C84.7826,55.5419 78.3856,49.1409 70.4946,49.1409" id="Fill-49" fill="#208D5C" mask="url(#mask-4)"></path>
                    <path d="M58.6572,58.6727 C56.0272,58.6727 53.8942,56.5387 53.8942,53.9067 C53.8942,51.2747 56.0272,49.1397 58.6572,49.1397 C61.2862,49.1397 63.4192,51.2747 63.4192,53.9067 C63.4192,56.5387 61.2862,58.6727 58.6572,58.6727 M65.7332,63.4407 C65.7332,60.8077 67.8652,58.6727 70.4942,58.6727 C71.0342,58.6727 71.5512,58.7677 72.0342,58.9327 C72.6212,57.3687 72.9442,55.6757 72.9442,53.9067 C72.9442,46.0097 66.5482,39.6087 58.6572,39.6087 C50.7662,39.6087 45.1672,46.0097 45.1672,53.9067 C45.1672,61.8027 50.7662,68.2057 58.6572,68.2057 C61.5222,68.2057 64.1882,67.3587 66.4252,65.9047 C65.9882,65.1847 65.7332,64.3437 65.7332,63.4407" id="Fill-50" fill="#208D5C" mask="url(#mask-4)"></path>
                    <path d="M83.5982,33.8616 C82.2792,33.8616 81.2102,32.7916 81.2102,31.4716 C81.2102,30.1516 82.2792,29.0806 83.5982,29.0806 C84.9172,29.0806 85.9872,30.1516 85.9872,31.4716 C85.9872,32.7916 84.9172,33.8616 83.5982,33.8616 M83.5982,24.2996 C79.6402,24.2996 76.4322,27.5106 76.4322,31.4716 C76.4322,35.4316 79.6402,38.6426 83.5982,38.6426 C87.5562,38.6426 90.7642,35.4316 90.7642,31.4716 C90.7642,27.5106 87.5562,24.2996 83.5982,24.2996" id="Fill-51" fill="#2CA06C" mask="url(#mask-4)"></path>
                    <path d="M49.2617,9.5613 C47.9427,9.5613 46.8737,8.4913 46.8737,7.1713 C46.8737,5.8513 47.9427,4.7803 49.2617,4.7803 C50.5807,4.7803 51.6507,5.8513 51.6507,7.1713 C51.6507,8.4913 50.5807,9.5613 49.2617,9.5613 M49.2617,-0.0007 C45.3037,-0.0007 42.0957,3.2103 42.0957,7.1713 C42.0957,11.1313 45.3037,14.3423 49.2617,14.3423 C53.2197,14.3423 56.4277,11.1313 56.4277,7.1713 C56.4277,3.2103 53.2197,-0.0007 49.2617,-0.0007" id="Fill-52" fill="#2CA06C" mask="url(#mask-4)"></path>
                    <path d="M15.1367,33.8616 C13.8177,33.8616 12.7487,32.7916 12.7487,31.4716 C12.7487,30.1516 13.8177,29.0806 15.1367,29.0806 C16.4557,29.0806 17.5257,30.1516 17.5257,31.4716 C17.5257,32.7916 16.4557,33.8616 15.1367,33.8616 M15.1367,24.2996 C11.1787,24.2996 7.9707,27.5106 7.9707,31.4716 C7.9707,35.4316 11.1787,38.6426 15.1367,38.6426 C19.0947,38.6426 22.3027,35.4316 22.3027,31.4716 C22.3027,27.5106 19.0947,24.2996 15.1367,24.2996" id="Fill-53" fill="#2CA06C" mask="url(#mask-4)"></path>
                    <path d="M28.1211,6.8851 C24.1631,6.8851 20.9551,10.0961 20.9551,14.0561 C20.9551,18.0171 24.1631,19.0761 28.1211,19.0761 C32.0791,19.0761 35.2871,18.0171 35.2871,14.0561 C35.2871,10.0961 32.0791,6.8851 28.1211,6.8851" id="Fill-54" fill="#2CA06C" mask="url(#mask-4)"></path>
                    <path d="M70.585,6.8851 C66.627,6.8851 63.419,10.0961 63.419,14.0561 C63.419,18.0171 66.627,19.2941 70.585,19.2941 C74.543,19.2941 77.751,18.0171 77.751,14.0561 C77.751,10.0961 74.543,6.8851 70.585,6.8851" id="Fill-55" fill="#2CA06C" mask="url(#mask-4)"></path>
                    <path d="M20.2402,49.1404 C17.6112,49.1404 15.4782,47.0064 15.4782,44.3744 C15.4782,41.7424 17.6112,39.6074 20.2402,39.6074 C22.8702,39.6074 25.0032,41.7424 25.0032,44.3744 C25.0032,47.0064 22.8702,49.1404 20.2402,49.1404 M20.2402,30.0764 C12.3492,30.0764 5.9522,36.4774 5.9522,44.3744 C5.9522,52.2704 12.3492,58.6734 20.2402,58.6734 C28.1312,58.6734 34.5282,52.2704 34.5282,44.3744 C34.5282,36.4774 28.1312,30.0764 20.2402,30.0764" id="Fill-56" fill="#2CA06C" mask="url(#mask-4)"></path>
                    <path d="M73.7534,44.3743 C73.7534,41.7423 75.8854,39.6073 78.5164,39.6073 C81.1454,39.6073 83.2774,41.7423 83.2774,44.3743 C83.2774,47.0063 81.1454,49.1403 78.5164,49.1403 C75.8854,49.1403 73.7534,47.0063 73.7534,44.3743 M64.2284,44.3743 C64.2284,52.2703 70.6254,58.6733 78.5164,58.6733 C86.4064,58.6733 92.8034,52.2703 92.8034,44.3743 C92.8034,36.4773 86.4064,30.0753 78.5164,30.0753 C70.6254,30.0753 64.2284,36.4773 64.2284,44.3743" id="Fill-57" fill="#2CA06C" mask="url(#mask-4)"></path>
                    <path d="M39.6831,39.4988 C37.0541,39.4988 34.9211,37.3648 34.9211,34.7328 C34.9211,32.1008 37.0541,29.9658 39.6831,29.9658 C42.3131,29.9658 44.4461,32.1008 44.4461,34.7328 C44.4461,37.3648 42.3131,39.4988 39.6831,39.4988 M39.6071,20.5428 C36.3641,20.5428 33.3741,21.6258 30.9761,23.4488 C31.2191,24.0208 31.3531,24.6498 31.3531,25.3108 C31.3531,27.9428 29.2211,30.0758 26.5901,30.0758 C26.4391,30.0758 26.2901,30.0668 26.1431,30.0538 C25.6111,31.5508 25.3191,33.1618 25.3191,34.8418 C25.3191,42.7378 31.7161,49.1408 39.6071,49.1408 C47.4971,49.1408 53.8941,42.7378 53.8941,34.8418 C53.8941,26.9448 47.4971,20.5428 39.6071,20.5428" id="Fill-58" fill="#2CA06C" mask="url(#mask-4)"></path>
                    <path d="M58.6572,39.6072 C56.0272,39.6072 53.8942,37.4732 53.8942,34.8412 C53.8942,32.2092 56.0272,30.0742 58.6572,30.0742 C61.2862,30.0742 63.4192,32.2092 63.4192,34.8412 C63.4192,37.4732 61.2862,39.6072 58.6572,39.6072 M67.4972,25.3102 C67.4972,24.7842 67.5862,24.2792 67.7432,23.8062 C65.2742,21.7672 62.1082,20.5432 58.6572,20.5432 C50.7662,20.5432 45.1672,26.9442 45.1672,34.8412 C45.1672,42.7372 50.7662,49.1402 58.6572,49.1402 C66.5482,49.1402 72.9442,42.7372 72.9442,34.8412 C72.9442,33.1682 72.6542,31.5622 72.1262,30.0692 C69.5592,29.9982 67.4972,27.8972 67.4972,25.3102" id="Fill-59" fill="#2CA06C" mask="url(#mask-4)"></path>
                    <path d="M29.959,28.68 C29.097,29.543 27.906,30.076 26.59,30.076 C23.961,30.076 21.829,27.943 21.829,25.31 C21.829,23.994 22.362,22.803 23.224,21.94 C24.085,21.077 25.276,20.543 26.591,20.543 C29.222,20.543 31.354,22.678 31.354,25.31 C31.354,26.626 30.821,27.817 29.959,28.68 M40.049,20.542 C37.419,20.542 35.287,18.409 35.287,15.777 C35.287,15.218 35.388,14.684 35.564,14.186 C33.111,12.201 29.991,11.011 26.591,11.011 C18.7,11.011 12.304,17.413 12.304,25.31 C12.304,33.206 18.7,39.609 26.591,39.609 C34.481,39.609 40.878,33.206 40.878,25.31 C40.878,23.638 40.589,22.034 40.062,20.542 C40.057,20.542 40.053,20.542 40.049,20.542" id="Fill-60" fill="#41B07C" mask="url(#mask-4)"></path>
                    <path d="M76.8081,26.7269 C76.7151,27.0259 76.5941,27.3109 76.4471,27.5809 C76.3741,27.7169 76.2941,27.8479 76.2091,27.9749 C75.3531,29.2429 73.9041,30.0759 72.2591,30.0759 C72.2571,30.0759 72.2551,30.0759 72.2531,30.0759 C72.0801,30.0749 71.9091,30.0649 71.7411,30.0459 C71.6841,30.0399 71.6291,30.0289 71.5731,30.0209 C71.4601,30.0039 71.3481,29.9869 71.2381,29.9629 C71.1731,29.9489 71.1101,29.9309 71.0471,29.9139 C70.9481,29.8879 70.8501,29.8609 70.7531,29.8289 C70.6881,29.8069 70.6241,29.7829 70.5601,29.7579 C70.4691,29.7229 70.3791,29.6859 70.2901,29.6449 C70.2271,29.6169 70.1651,29.5869 70.1041,29.5559 C70.0171,29.5119 69.9331,29.4639 69.8491,29.4149 C69.7911,29.3809 69.7331,29.3469 69.6771,29.3099 C69.5931,29.2559 69.5131,29.1979 69.4331,29.1389 C69.3811,29.1009 69.3291,29.0639 69.2791,29.0239 C69.1941,28.9559 69.1141,28.8819 69.0331,28.8079 C68.9941,28.7719 68.9531,28.7379 68.9151,28.6999 C68.7991,28.5859 68.6881,28.4669 68.5851,28.3419 L68.5851,28.3409 C68.4931,28.2299 68.4081,28.1139 68.3261,27.9949 C68.3011,27.9579 68.2791,27.9199 68.2551,27.8829 C68.2011,27.7979 68.1471,27.7129 68.0991,27.6239 C68.0731,27.5779 68.0491,27.5309 68.0251,27.4829 C67.9821,27.3999 67.9411,27.3159 67.9031,27.2299 C67.8811,27.1799 67.8611,27.1289 67.8401,27.0779 C67.8061,26.9919 67.7731,26.9039 67.7441,26.8139 C67.7261,26.7629 67.7091,26.7099 67.6941,26.6579 C67.6661,26.5639 67.6421,26.4689 67.6211,26.3729 C67.6091,26.3229 67.5971,26.2739 67.5871,26.2229 C67.5661,26.1139 67.5501,26.0039 67.5371,25.8929 C67.5321,25.8529 67.5251,25.8149 67.5211,25.7749 C67.5061,25.6219 67.4971,25.4669 67.4971,25.3099 C67.4971,22.6779 69.6291,20.5429 72.2601,20.5429 C72.2871,20.5429 72.3121,20.5469 72.3391,20.5469 C72.4851,20.5499 72.6301,20.5569 72.7731,20.5719 C72.8401,20.5789 72.9061,20.5919 72.9721,20.6019 C73.0741,20.6179 73.1761,20.6329 73.2761,20.6549 C73.3471,20.6699 73.4161,20.6899 73.4871,20.7089 C73.5791,20.7329 73.6701,20.7589 73.7601,20.7889 C73.8301,20.8119 73.8991,20.8379 73.9681,20.8649 C74.0541,20.8979 74.1391,20.9329 74.2231,20.9709 C74.2901,21.0009 74.3551,21.0329 74.4201,21.0659 C74.5031,21.1079 74.5841,21.1539 74.6641,21.2009 C74.7251,21.2359 74.7871,21.2719 74.8461,21.3109 C74.9271,21.3629 75.0041,21.4189 75.0811,21.4769 C75.1351,21.5169 75.1901,21.5549 75.2421,21.5959 C75.3251,21.6629 75.4031,21.7339 75.4811,21.8069 C75.5221,21.8449 75.5651,21.8799 75.6051,21.9189 C75.7231,22.0359 75.8341,22.1569 75.9391,22.2839 C76.0291,22.3929 76.1131,22.5059 76.1921,22.6229 C76.2201,22.6629 76.2441,22.7049 76.2691,22.7449 C76.3221,22.8259 76.3721,22.9079 76.4201,22.9929 C76.4471,23.0419 76.4721,23.0929 76.4981,23.1429 C76.5381,23.2219 76.5781,23.3019 76.6141,23.3839 C76.6381,23.4379 76.6601,23.4929 76.6821,23.5479 C76.7151,23.6299 76.7451,23.7129 76.7731,23.7979 C76.7921,23.8539 76.8101,23.9109 76.8281,23.9679 C76.8531,24.0559 76.8751,24.1439 76.8961,24.2339 C76.9091,24.2899 76.9231,24.3459 76.9331,24.4029 C76.9531,24.5019 76.9671,24.6019 76.9791,24.7039 C76.9861,24.7519 76.9941,24.8009 76.9991,24.8499 C77.0141,25.0009 77.0221,25.1549 77.0221,25.3099 C77.0221,25.8039 76.9471,26.2799 76.8081,26.7269 M72.2601,11.0109 C68.8091,11.0109 65.6431,12.2349 63.1741,14.2739 C63.3311,14.7469 63.4191,15.2509 63.4191,15.7769 C63.4191,18.3629 61.3591,20.4639 58.7911,20.5359 C58.2631,22.0289 57.9731,23.6349 57.9731,25.3099 C57.9731,33.2059 64.3701,39.6079 72.2601,39.6079 C80.1501,39.6079 86.5471,33.2059 86.5471,25.3099 C86.5471,17.4129 80.1501,11.0109 72.2601,11.0109" id="Fill-61" fill="#41B07C" mask="url(#mask-4)"></path>
                    <path d="M40.0488,20.5423 C37.4198,20.5423 35.2868,18.4083 35.2868,15.7763 C35.2868,13.1443 37.4198,11.0093 40.0488,11.0093 C42.6788,11.0093 44.8118,13.1443 44.8118,15.7763 C44.8118,18.4083 42.6788,20.5423 40.0488,20.5423 M53.9488,15.7773 C53.9488,15.2033 54.0558,14.6563 54.2408,14.1473 C53.4328,7.0183 47.3888,1.4783 40.0488,1.4783 C32.1578,1.4783 25.7608,7.8793 25.7608,15.7763 C25.7608,17.4483 26.0508,19.0523 26.5778,20.5443 C26.5828,20.5443 26.5868,20.5433 26.5908,20.5433 C29.2218,20.5433 31.3538,22.6783 31.3538,25.3103 C31.3538,25.8693 31.2528,26.4023 31.0758,26.9003 C33.5288,28.8853 36.6498,30.0753 40.0488,30.0753 C47.3878,30.0753 53.4318,24.5353 54.2408,17.4063 C54.0558,16.8973 53.9488,16.3503 53.9488,15.7773" id="Fill-62" fill="#41B07C" mask="url(#mask-4)"></path>
                    <path d="M58.711,20.5428 C58.702,20.5428 58.693,20.5418 58.684,20.5418 C58.675,20.5418 58.666,20.5428 58.657,20.5428 C57.194,20.5428 55.887,19.8818 55.013,18.8428 C54.316,18.0138 53.895,16.9448 53.895,15.7768 C53.895,13.1448 56.027,11.0098 58.657,11.0098 C58.668,11.0098 58.677,11.0118 58.688,11.0118 C58.695,11.0118 58.703,11.0098 58.711,11.0098 C61.342,11.0098 63.474,13.1448 63.474,15.7768 C63.474,18.4088 61.342,20.5428 58.711,20.5428 M67.47,25.3098 C67.47,22.7138 69.546,20.6058 72.127,20.5478 C72.654,19.0558 72.944,17.4498 72.944,15.7768 C72.944,7.8798 66.548,1.4778 58.657,1.4778 C51.356,1.4778 45.337,6.9608 44.479,14.0368 C44.691,14.5758 44.811,15.1618 44.811,15.7768 C44.811,16.3918 44.691,16.9778 44.479,17.5178 C45.338,24.5918 51.356,30.0758 58.657,30.0758 C62.099,30.0758 65.256,28.8568 67.722,26.8278 C67.562,26.3508 67.47,25.8408 67.47,25.3098" id="Fill-63" fill="#41B07C" mask="url(#mask-4)"></path>
                    <polygon id="Fill-64" fill="#2CA06C" mask="url(#mask-4)" points="21.077 91.565 78.036 91.565 78.036 90.275 21.077 90.275"></polygon>
                </g>
            </g>
        </g>
    </g>
</svg>