<?xml version="1.0" encoding="UTF-8"?>
<svg width="76px" height="85px" viewBox="0 0 76 85" version="1.1" xmlns="http://www.w3.org/2000/svg" xmlns:xlink="http://www.w3.org/1999/xlink">
    <!-- Generator: Sketch 52 (66869) - http://www.bohemiancoding.com/sketch -->
    <title>Group 5</title>
    <desc>Created with Sketch.</desc>
    <defs>
        <path d="M7.43825744,0.265983461 C6.85739395,0.271712336 6.19961612,0.436212876 6.03617316,0.770124421 L4.90008429,3.16724921 C4.63489006,3.71231071 6.16035776,3.67548223 6.51528539,3.16724921 L8.34280211,0.770124421 C8.58155703,0.445215393 8.09523408,0.271712336 7.5047563,0.265983461 L7.43825744,0.265983461 Z M5.39682272,4.6567566 C4.27916125,5.87373323 1.77864407,11.6124287 0.447865781,15.7347631 C0.199496564,16.4803352 2.59425653,16.4803352 2.80737334,15.7347631 C3.07336876,14.8271457 3.33936418,13.9735434 3.6053596,13.1199411 L7.66900046,13.1199411 C7.93419469,13.9735434 8.20019011,14.8271457 8.46698672,15.7347631 C8.66728447,16.4189544 10.8160788,16.4754248 10.846524,15.8591616 L10.846524,15.832154 C10.8457229,15.8010544 10.8393133,15.768318 10.8264943,15.7347631 C9.49651718,11.6124287 6.99439762,5.87373323 5.87673614,4.6567566 C5.81424324,4.60192308 5.72611223,4.57491553 5.63637884,4.57491553 C5.54744663,4.57491553 5.45931562,4.60192308 5.39682272,4.6567566 Z M5.64599313,7.78063004 C6.19480898,8.99760668 6.6570962,10.1589314 7.06490243,11.3227113 L4.20865644,11.3227113 C4.61646267,10.1589314 5.07794869,8.99760668 5.64599313,7.78063004 Z" id="path-1"></path>
        <path d="M0.653651695,0.80758869 L0.653651695,8.3007131 C0.653651695,9.02064393 2.85099819,9.02064393 2.85099819,8.3007131 L2.85099819,3.54527377 C3.70823252,2.66220191 4.58397437,2.39273514 5.66498136,2.33916644 C6.31695055,2.32049856 6.7636546,0.30355595 6.07467038,0.321412182 C4.6209894,0.356313 3.53998241,0.896869852 2.83249068,1.74422924 L2.55403674,0.645259305 C2.49262545,0.408258403 2.06947641,0.279206542 1.63875612,0.279206542 C1.15167203,0.279206542 0.653651695,0.443970868 0.653651695,0.80758869 Z" id="path-3"></path>
        <path d="M0.228412277,1.63635629 L0.228412277,12.7819933 C0.228412277,13.4875935 1.78243152,13.4323508 1.98066074,12.91173 L2.25149244,12.1693014 C2.99301658,12.8564873 4.04045002,13.2833628 5.19637929,13.2833628 C7.12891031,13.2833628 8.41209785,11.5373581 8.41209785,8.84469409 C8.41209785,6.20643576 7.12891031,4.4420168 5.19637929,4.4420168 C4.09429006,4.4420168 3.08274998,4.7952354 2.34285735,5.42634161 L2.34285735,0.837847902 C2.34285735,0.571678439 2.14544388,0.461193001 1.87053339,0.461193001 C1.24729418,0.461193001 0.228412277,1.03119742 0.228412277,1.63635629 Z M2.34285735,10.4793764 L2.34285735,7.21001182 C2.92041411,6.65256257 3.57057334,6.3554237 4.27620412,6.3554237 C5.61241594,6.33700946 6.29846853,7.21001182 6.29846853,8.84469409 C6.29846853,10.5162048 5.62709959,11.3883702 4.31780779,11.3883702 C4.3039399,11.3883702 4.29007201,11.3883702 4.27620412,11.3883702 C3.57057334,11.3883702 2.90246743,11.0728171 2.34285735,10.4793764 Z" id="path-5"></path>
        <path d="M0.00560833715,4.5541509 C0.00560833715,7.25531186 1.56584773,8.84045831 4.23834501,8.84045831 C6.91165239,8.84045831 8.47270188,7.25531186 8.47270188,4.5541509 C8.47270188,1.8335104 6.91165239,0.231319374 4.23834501,0.231319374 C1.56584773,0.231319374 0.00560833715,1.8335104 0.00560833715,4.5541509 Z M2.10374958,4.5541509 C2.10374958,2.78800719 2.8935904,1.81646582 4.23834501,1.81646582 C5.58390973,1.81646582 6.37375054,2.78800719 6.37375054,4.5541509 C6.37375054,6.28295885 5.58390973,7.25531186 4.23834501,7.25531186 C2.8935904,7.25531186 2.10374958,6.28295885 2.10374958,4.5541509 Z" id="path-7"></path>
        <path d="M2.29094341,0.550753167 C1.63140296,0.550753167 0.482441625,1.20613269 0.482441625,1.84142396 L0.482441625,10.7756782 C0.482441625,12.6522566 1.4281319,13.3017771 2.62682049,13.3017771 C3.18690643,13.3017771 3.78537832,13.1536262 4.38472261,12.9493955 C5.21525503,12.5961769 5.19606206,10.9246662 4.38472261,11.221805 C4.01743885,11.3331275 3.70860641,11.4067844 3.47741829,11.4067844 C2.95571831,11.4067844 2.74197835,11.0544028 2.74197835,10.2567315 L2.74197835,0.912341872 C2.74197835,0.657890561 2.55702785,0.551590177 2.29356064,0.550753167 C2.29268823,0.550753167 2.29181582,0.550753167 2.29094341,0.550753167 Z" id="path-9"></path>
        <path d="M0.528679249,1.68557873 L0.528679249,11.9955193 C0.528679249,12.7451338 2.48337169,12.7451338 2.48337169,11.9955193 L2.48337169,0.750457765 C2.48337169,0.500867317 2.32559047,0.397152368 2.10050921,0.397152368 C1.53144993,0.397152368 0.528679249,1.05570014 0.528679249,1.68557873 Z" id="path-11"></path>
        <path d="M0.0889322034,6.5323554 C0.0889322034,10.311627 2.04063353,12.557941 5.34073935,12.557941 C8.64084517,12.557941 10.5917453,10.311627 10.5917453,6.5323554 C10.5917453,2.73368997 8.64084517,0.487375942 5.34073935,0.487375942 C2.04063353,0.487375942 0.0889322034,2.73368997 0.0889322034,6.5323554 Z M2.27137655,6.5323554 C2.27137655,3.93189276 3.38903802,2.41495622 5.34073935,2.41495622 C7.27481448,2.41495622 8.41010215,3.93189276 8.41010215,6.5323554 C8.41010215,9.1142674 7.27481448,10.6303607 5.34073935,10.6303607 C3.38903802,10.6303607 2.27137655,9.1142674 2.27137655,6.5323554 Z" id="path-13"></path>
        <path d="M0.606390669,0.637467495 C-0.231121012,0.637467495 0.660345749,2.56504778 1.49785743,2.56504778 L4.01280837,2.56504778 L4.01280837,11.9955193 C4.01280837,12.7442906 6.25959452,12.7442906 6.25959452,11.9955193 L6.25959452,2.56504778 L9.50495228,2.56504778 C10.2007312,2.56504778 10.2007312,0.637467495 9.50495228,0.637467495 L0.606390669,0.637467495 Z" id="path-15"></path>
        <path d="M0.0769143381,6.27939211 C0.0769143381,9.36301463 2.44603619,11.8631352 5.36717865,11.8631352 C8.2899235,11.8631352 10.6582442,9.36301463 10.6582442,6.27939211 C10.6582442,3.19492637 8.2899235,0.695649052 5.36717865,0.695649052 C2.44603619,0.695649052 0.0769143381,3.19492637 0.0769143381,6.27939211 Z M3.60455841,6.27939211 C3.60455841,5.25151793 4.39373156,4.41758228 5.36717865,4.41758228 C6.34142694,4.41758228 7.13140128,5.25151793 7.13140128,6.27939211 C7.13140128,7.30726628 6.34142694,8.14035873 5.36717865,8.14035873 C4.39373156,8.14035873 3.60455841,7.30726628 3.60455841,6.27939211 Z" id="path-17"></path>
        <path d="M0.716959139,11.5708651 C0.716959139,12.9588418 0.981058406,14.2858627 1.4570994,15.5074469 C1.90499189,15.3089292 2.40173033,15.1969026 2.92578937,15.1969026 C4.93095685,15.1969026 6.55777522,16.8204646 6.55777522,18.8221163 C6.55777522,19.5741773 6.32844764,20.2735198 5.93436848,20.8525985 C7.58933536,21.8624853 9.53489423,22.4473301 11.6170562,22.4473301 C17.6358702,22.4473301 22.5163253,17.5766441 22.5163253,11.5708651 C22.5163253,5.5642624 17.6358702,0.695223904 11.6170562,0.695223904 C5.59741425,0.695223904 0.716959139,5.5642624 0.716959139,11.5708651 Z M8.10097595,11.5708651 C8.10097595,9.56838965 9.72779432,7.94482767 11.7337897,7.94482767 C13.740613,7.94482767 15.3674313,9.56838965 15.3674313,11.5708651 C15.3674313,13.5725169 13.740613,15.1960789 11.7337897,15.1960789 C9.72779432,15.1960789 8.10097595,13.5725169 8.10097595,11.5708651 Z" id="path-19"></path>
        <path d="M0.304927368,11.4077676 C0.304927368,17.4143703 5.20287515,22.2842325 11.2440928,22.2842325 C17.2853105,22.2842325 22.1832583,17.4143703 22.1832583,11.4077676 C22.1832583,10.0189672 21.9173816,8.69276997 21.4404652,7.47200951 C20.9884748,7.66887979 20.4924485,7.78173012 19.967342,7.78173012 C17.9541567,7.78173012 16.3223383,6.15899186 16.3223383,4.15651637 C16.3223383,3.40445544 16.5524878,2.70593664 16.9471486,2.12685796 C15.2862499,1.11614738 13.3328869,0.532950078 11.2440928,0.532950078 C5.20287515,0.532950078 0.304927368,5.40116485 0.304927368,11.4077676 Z M7.59742739,11.4077676 C7.59742739,9.40611582 9.23173838,7.78173012 11.2440928,7.78173012 C13.2572782,7.78173012 14.8899274,9.40611582 14.8899274,11.4077676 C14.8899274,13.4102431 13.2572782,15.0329813 11.2440928,15.0329813 C9.23173838,15.0329813 7.59742739,13.4102431 7.59742739,11.4077676 Z" id="path-21"></path>
        <path d="M0.589676592,6.26421431 C0.589676592,9.34699363 2.95879844,11.8471142 5.8807421,11.8471142 C8.80188456,11.8471142 11.1710064,9.34699363 11.1710064,6.26421431 C11.1710064,3.17974858 8.80188456,0.679628044 5.8807421,0.679628044 C2.95879844,0.679628044 0.589676592,3.17974858 0.589676592,6.26421431 Z M4.11732066,6.26421431 C4.11732066,5.23549693 4.90649382,4.40240449 5.8807421,4.40240449 C6.85418919,4.40240449 7.64416354,5.23549693 7.64416354,6.26421431 C7.64416354,7.29124528 6.85418919,8.12518093 5.8807421,8.12518093 C4.90649382,8.12518093 4.11732066,7.29124528 4.11732066,6.26421431 Z" id="path-23"></path>
        <path d="M5.26435914,2.28254199 C5.59836677,2.82949539 5.79445086,3.46952972 5.79445086,4.15651637 C5.79445086,6.15899186 4.16097073,7.78173012 2.14778541,7.78173012 C1.73567649,7.78173012 1.339354,7.71006604 0.969619179,7.58485984 C0.520121342,8.77349502 0.272523642,10.0609772 0.272523642,11.4077676 C0.272523642,17.4143703 5.17047142,22.2842325 11.2116891,22.2842325 C17.2529068,22.2842325 22.1500237,17.4143703 22.1500237,11.4077676 C22.1500237,5.40034113 17.2529068,0.532126353 11.2116891,0.532126353 C9.01820614,0.532126353 6.97677142,1.17627931 5.26435914,2.28254199 Z M8.39755016,13.7141976 C7.87742882,13.0865191 7.56502367,12.2833873 7.56502367,11.4077676 C7.56502367,9.40611582 9.19767293,7.78173012 11.2116891,7.78173012 C12.3300331,7.78173012 13.332056,8.28420237 14.0009021,9.07415465 C14.5343173,9.705128 14.8575237,10.5189683 14.8575237,11.4077676 C14.8575237,13.4102431 13.2240436,15.0329813 11.2116891,15.0329813 C10.0783896,15.0329813 9.06639629,14.5198007 8.39755016,13.7141976 Z" id="path-25"></path>
        <path d="M0.130113422,11.5700414 C0.130113422,17.5758204 4.43219695,22.4465064 10.4974842,22.4465064 C12.6985695,22.4465064 14.7478559,21.8023534 16.4668544,20.6960907 C16.1315621,20.1491373 15.9355579,19.5082793 15.9355579,18.8221163 C15.9355579,16.8196409 17.5744866,15.1952552 19.5945809,15.1952552 C20.0091089,15.1952552 20.4069557,15.267743 20.7781126,15.3929492 C21.2293393,14.2034902 21.4778893,12.9151843 21.4778893,11.5700414 C21.4778893,5.56343868 16.5619373,0.695223904 10.4974842,0.695223904 C4.43219695,0.695223904 0.130113422,5.56343868 0.130113422,11.5700414 Z M6.83679307,11.5700414 C6.83679307,9.56838965 8.47572175,7.94400394 10.4974842,7.94400394 C12.5175784,7.94400394 14.1573412,9.56838965 14.1573412,11.5700414 C14.1573412,13.5725169 12.5175784,15.1952552 10.4974842,15.1952552 C8.47572175,15.1952552 6.83679307,13.5725169 6.83679307,11.5700414 Z" id="path-27"></path>
        <path d="M0.0219348297,5.84313318 C0.0219348297,8.75752538 2.37893199,11.1218819 5.28788923,11.1218819 C8.1976441,11.1218819 10.5554389,8.75752538 10.5554389,5.84313318 C10.5554389,2.92714666 8.1976441,0.56279018 5.28788923,0.56279018 C2.37893199,0.56279018 0.0219348297,2.92714666 0.0219348297,5.84313318 Z M3.53390048,5.84313318 C3.53390048,4.87140339 4.31876857,4.08301884 5.28788923,4.08301884 C6.25780752,4.08301884 7.04427087,4.87140339 7.04427087,5.84313318 C7.04427087,6.81406581 6.25780752,7.6016532 5.28788923,7.6016532 C4.31876857,7.6016532 3.53390048,6.81406581 3.53390048,5.84313318 Z" id="path-29"></path>
        <path d="M5.46412277,0.214434219 C2.58303985,0.259871953 0.260387082,2.60589391 0.260387082,5.49318291 C0.260387082,8.40837227 2.62950893,10.7711344 5.5506514,10.7711344 C8.47259505,10.7711344 10.8409157,8.40837227 10.8409157,5.49318291 C10.8409157,2.60589391 8.51906413,0.259871953 5.63718003,0.214434219 L5.46412277,0.214434219 Z M3.78803115,5.49318291 C3.78803115,4.52065597 4.57720431,3.73306858 5.5506514,3.73306858 C6.52409849,3.73306858 7.31487403,4.52065597 7.31487403,5.49318291 C7.31487403,6.46411554 6.52409849,7.25250009 5.5506514,7.25250009 C4.57720431,7.25250009 3.78803115,6.46411554 3.78803115,5.49318291 Z" id="path-31"></path>
        <path d="M0.701914552,5.84313318 C0.701914552,8.75752538 3.06050697,11.1218819 5.96866658,11.1218819 C8.87842145,11.1218819 11.2362162,8.75752538 11.2362162,5.84313318 C11.2362162,2.92714666 8.87842145,0.56279018 5.96866658,0.56279018 C3.06050697,0.56279018 0.701914552,2.92714666 0.701914552,5.84313318 Z M4.2138802,5.84313318 C4.2138802,4.87140339 4.99954592,4.08301884 5.96866658,4.08301884 C6.93858487,4.08301884 7.72504822,4.87140339 7.72504822,5.84313318 C7.72504822,6.81406581 6.93858487,7.6016532 5.96866658,7.6016532 C4.99954592,7.6016532 4.2138802,6.81406581 4.2138802,5.84313318 Z" id="path-33"></path>
        <path d="M0.674795126,5.84115801 C0.674795126,8.78954437 3.03179229,9.57782263 5.94074953,9.57782263 C8.85050439,9.57782263 11.2075016,8.78954437 11.2075016,5.84115801 C11.2075016,2.89518967 8.85050439,0.504562566 5.94074953,0.504562566 C3.03179229,0.504562566 0.674795126,2.89518967 0.674795126,5.84115801 Z" id="path-35"></path>
        <path d="M0.0291135013,5.80659494 C0.0291135013,8.73753523 2.38690829,9.68299984 5.2950679,9.68299984 C8.20482277,9.68299984 10.5626176,8.73753523 10.5626176,5.80659494 C10.5626176,2.87805837 8.20482277,0.501576988 5.2950679,0.501576988 C2.38690829,0.501576988 0.0291135013,2.87805837 0.0291135013,5.80659494 Z" id="path-37"></path>
        <path d="M0.01744816,10.9485158 C0.01744816,16.9758209 4.91456507,21.8639645 10.9557828,21.8639645 C16.9978313,21.8639645 21.8949482,16.9758209 21.8949482,10.9485158 C21.8949482,4.92038403 16.9978313,0.0347204518 10.9557828,0.0347204518 C4.91456507,0.0347204518 0.01744816,4.92038403 0.01744816,10.9485158 Z M7.30994819,10.9485158 C7.30994819,8.93968966 8.94342831,7.30948178 10.9557828,7.30948178 C12.969799,7.30948178 14.6024482,8.93968966 14.6024482,10.9485158 C14.6024482,12.9581686 12.969799,14.5867231 10.9557828,14.5867231 C8.94342831,14.5867231 7.30994819,12.9581686 7.30994819,10.9485158 Z" id="path-39"></path>
        <path d="M0.595258223,10.9485158 C0.595258223,16.9758209 5.47571333,21.8639645 11.4945273,21.8639645 C17.5149972,21.8639645 22.3946244,16.9758209 22.3946244,10.9485158 C22.3946244,4.92038403 17.5149972,0.0330670969 11.4945273,0.0330670969 C5.47571333,0.0330670969 0.595258223,4.92038403 0.595258223,10.9485158 Z M7.86171361,10.9485158 C7.86171361,8.93968966 9.48853197,7.30948178 11.4945273,7.30948178 C13.5013506,7.30948178 15.1273411,8.93968966 15.1273411,10.9485158 C15.1273411,12.9573419 13.5013506,14.5867231 11.4945273,14.5867231 C9.48853197,14.5867231 7.86171361,12.9573419 7.86171361,10.9485158 Z" id="path-41"></path>
        <path d="M5.03361612,2.41472475 C5.21823724,2.85121043 5.32006862,3.33151002 5.32006862,3.83660992 C5.32006862,5.84543606 3.69407815,7.47399059 1.68725488,7.47399059 C1.57134924,7.47399059 1.4570994,7.46737717 1.34616115,7.45663036 C0.939663536,8.59909856 0.716959139,9.82919457 0.716959139,11.1121979 C0.716959139,17.139503 5.59741425,22.0276466 11.6170562,22.0276466 C17.6358702,22.0276466 22.5163253,17.139503 22.5163253,11.1121979 C22.5163253,5.08406616 17.6358702,0.196749227 11.6170562,0.196749227 C9.14247087,0.196749227 6.86161356,1.02342665 5.03361612,2.41472475 Z M8.04219524,11.0287035 C8.04219524,9.01905069 9.66901361,7.38966949 11.675009,7.38966949 C13.6818322,7.38966949 15.3086506,9.01905069 15.3086506,11.0287035 C15.3086506,13.0375296 13.6818322,14.6669109 11.675009,14.6669109 C9.66901361,14.6669109 8.04219524,13.0375296 8.04219524,11.0287035 Z" id="path-43"></path>
        <path d="M0.130113422,11.1113713 C0.130113422,17.1386763 4.43219695,22.02682 10.4974842,22.02682 C16.5619373,22.02682 21.4778893,17.1386763 21.4778893,11.1113713 C21.4778893,9.83415463 21.2551952,8.60819201 20.8490077,7.46903052 C18.8756208,7.41446981 17.2917401,5.81071561 17.2917401,3.83578325 C17.2917401,3.4348447 17.359299,3.04878634 17.4802378,2.6875283 C15.5827504,1.13089472 13.1489622,0.196749227 10.4974842,0.196749227 C4.43219695,0.196749227 0.130113422,5.08323948 0.130113422,11.1113713 Z M6.83679307,11.1113713 C6.83679307,9.10254511 8.47572175,7.47233723 10.4974842,7.47233723 C12.5175784,7.47233723 14.1573412,9.10254511 14.1573412,11.1113713 C14.1573412,13.1201974 12.5175784,14.7495786 10.4974842,14.7495786 C8.47572175,14.7495786 6.83679307,13.1201974 6.83679307,11.1113713 Z" id="path-45"></path>
        <path d="M0.722754421,11.2758801 C0.722754421,17.3031852 5.60320953,22.1913288 11.6220235,22.1913288 C17.6416655,22.1913288 22.5212927,17.3031852 22.5212927,11.2758801 C22.5212927,9.99949012 22.301072,8.77518085 21.8987138,7.63601936 L21.8887791,7.63601936 C19.8827837,7.63601936 18.2559653,6.00746484 18.2559653,3.9986387 C18.2559653,3.57207315 18.3329598,3.16452118 18.4679071,2.78424956 C16.5960311,1.26894985 14.2158261,0.360431357 11.6220235,0.360431357 C5.60320953,0.360431357 0.722754421,5.24774829 0.722754421,11.2758801 Z M7.9892098,11.2758801 C7.9892098,10.271467 8.39653532,9.36212182 9.05305795,8.70408659 C9.71040847,8.04439801 10.6186119,7.63684604 11.6220235,7.63684604 C13.6288468,7.63684604 15.2556652,9.26705392 15.2556652,11.2758801 C15.2556652,12.2802931 14.8499955,13.1896383 14.191817,13.8485002 C13.5336386,14.5065354 12.6254352,14.9140874 11.6211956,14.9140874 C9.61602817,14.9140874 7.9892098,13.2855329 7.9892098,11.2758801 Z" id="path-47"></path>
        <path d="M4.01014801,2.85121043 C4.13102103,3.21246847 4.19808071,3.59687347 4.19808071,3.9986387 C4.19808071,5.97274439 2.62590357,7.57649859 0.667098351,7.63188598 C0.26474022,8.77104747 0.0428637197,9.99701008 0.0428637197,11.2758801 C0.0428637197,17.3031852 4.92331883,22.1905021 10.9421328,22.1905021 C16.9609469,22.1905021 21.841402,17.3031852 21.841402,11.2758801 C21.841402,5.24774829 16.9609469,0.360431357 10.9421328,0.360431357 C8.30941915,0.360431357 5.89444246,1.29457685 4.01014801,2.85121043 Z M10.5463979,14.8909404 C10.5033472,14.8859804 10.4602966,14.8785403 10.4180738,14.8719269 C10.3319725,14.8587 10.246699,14.8462999 10.1622535,14.8272863 C10.1134076,14.8173661 10.0653895,14.8033126 10.0165436,14.7900858 C9.9412049,14.7702455 9.86669414,14.7495786 9.79218337,14.7256049 C9.74333743,14.7082447 9.69366358,14.6900578 9.64564553,14.6710442 C9.57610215,14.6445906 9.50738667,14.6164835 9.43949908,14.5850698 C9.39148104,14.5635762 9.34346299,14.5404292 9.29792863,14.5172822 C9.23086894,14.4833885 9.16629295,14.4470147 9.10337274,14.4098142 C9.05949418,14.3833605 9.01478772,14.3577335 8.97090916,14.3287998 C8.90798896,14.2874659 8.84672455,14.243652 8.78546015,14.1990114 C8.74654897,14.1700777 8.70680989,14.1419707 8.66789872,14.1113836 C8.60332272,14.0593029 8.54205831,14.0022622 8.47996601,13.9460481 C8.4509896,13.9187678 8.4187016,13.8923141 8.38972519,13.8633804 C8.30196807,13.7765793 8.21752254,13.6856447 8.13887229,13.5905768 L8.13887229,13.5897502 C8.06850101,13.5046024 8.00392501,13.4161479 7.94183271,13.3252134 C7.92196317,13.2971064 7.90540522,13.2681727 7.88719148,13.2400656 C7.84579661,13.1747581 7.80440174,13.1094506 7.76797426,13.041663 C7.74810472,13.0069426 7.72989098,12.9713955 7.71084934,12.934195 C7.67856134,12.8705408 7.64710124,12.8068866 7.61895273,12.7415791 C7.60156688,12.7027253 7.58583683,12.6638715 7.57010678,12.6250176 C7.54444196,12.5597101 7.51877714,12.4919225 7.49725181,12.424135 C7.48317755,12.3852812 7.47075909,12.3439473 7.45834063,12.3042668 C7.4376432,12.2323458 7.41942945,12.1604249 7.40287151,12.0876773 C7.39376464,12.0496501 7.38465776,12.011623 7.37720669,11.9727691 C7.36147664,11.8892747 7.34905818,11.8057803 7.33912341,11.7206325 C7.33581182,11.6900454 7.33001654,11.6611117 7.32670495,11.6305247 C7.31594228,11.5139632 7.3093191,11.3957483 7.3093191,11.2758801 C7.3093191,9.26622724 8.93530957,7.63684604 10.9421328,7.63684604 C10.9628303,7.63684604 10.9818719,7.64015275 11.0025694,7.64015275 C11.1143355,7.6418061 11.2244459,7.64759285 11.3329004,7.65916633 C11.3842301,7.6641264 11.4355597,7.6748732 11.4852335,7.6823133 C11.5630559,7.69388678 11.6408782,7.70546027 11.7170448,7.72199381 C11.771686,7.7335673 11.8246715,7.74927417 11.8776569,7.76415436 C11.9488561,7.78151459 12.0175716,7.80218152 12.086287,7.82450182 C12.1401004,7.84186204 12.1922579,7.86252898 12.2452433,7.88319591 C12.3106472,7.90716956 12.3760511,7.93444991 12.4397992,7.96338362 C12.4911289,7.98653059 12.5399748,8.01133091 12.5904765,8.03613124 C12.6533967,8.06837166 12.7154891,8.10309211 12.7767535,8.13863924 C12.8222878,8.16591959 12.8703059,8.19319995 12.9150123,8.22296033 C12.9771046,8.26346753 13.0358853,8.30562808 13.0938382,8.34944198 C13.1360609,8.38002904 13.1774558,8.40978943 13.2171949,8.4403765 C13.2801151,8.4916305 13.3397237,8.54619121 13.3993323,8.60157859 C13.4307924,8.6305123 13.4630804,8.65779266 13.4937126,8.68755305 C13.5839534,8.77683421 13.6683989,8.8685954 13.748705,8.96531666 C13.8174205,9.04881108 13.8811686,9.13478553 13.9416051,9.22406669 C13.9631304,9.25465376 13.9813442,9.28689418 14.0003858,9.31748124 C14.0409528,9.37948205 14.0790361,9.44148286 14.1154635,9.50761705 C14.136161,9.54481753 14.1560305,9.5828447 14.1750721,9.62169853 C14.2057044,9.68204599 14.2363366,9.74322012 14.2636572,9.80522092 C14.2826988,9.84738147 14.2984289,9.88871534 14.3158147,9.93087589 C14.3406516,9.9928767 14.3638328,10.0573575 14.3853581,10.1210117 C14.3994323,10.1639989 14.4135066,10.2078128 14.426753,10.2508001 C14.4457946,10.3177609 14.4623525,10.3855485 14.4789105,10.4541627 C14.4888453,10.4971499 14.4996079,10.5401372 14.507059,10.5839511 C14.5219612,10.6591787 14.5335517,10.735233 14.5426586,10.8129407 C14.547626,10.8501412 14.5534213,10.8873417 14.5575607,10.9245422 C14.5683234,11.0394503 14.5749466,11.1576652 14.5749466,11.2758801 C14.5749466,11.652845 14.5178217,12.0157564 14.4118508,12.3571741 C14.3406516,12.5861638 14.248755,12.8035799 14.136161,13.0094226 C14.0815197,13.113584 14.0202553,13.2127853 13.9548514,13.3095065 C13.3016404,14.2775458 12.1963974,14.9140874 10.9413049,14.9140874 L10.9371655,14.9140874 C10.8047019,14.9132607 10.674722,14.9058206 10.5463979,14.8909404 Z" id="path-49"></path>
        <path d="M0.227656945,11.3978829 C0.227656945,12.6688906 0.449497837,13.889651 0.852467247,15.0239204 C0.856621571,15.0239204 0.859114165,15.0239204 0.862437624,15.0239204 C2.87645381,15.0239204 4.50910307,16.6474823 4.50910307,18.6499578 C4.50910307,19.0741762 4.43183265,19.4802726 4.29640169,19.8583624 C6.17415605,21.3682503 8.56372311,22.2735241 11.1659916,22.2735241 C16.7842991,22.2735241 21.4122158,18.059347 22.0312101,12.637589 C21.889963,12.2504383 21.8077074,11.8336334 21.8077074,11.3987066 C21.8077074,10.9621324 21.889963,10.5461512 22.0312101,10.1581768 C21.4122158,4.73559505 16.7851299,0.522241653 11.1659916,0.522241653 C5.12477386,0.522241653 0.227656945,5.39128015 0.227656945,11.3978829 Z M7.51932611,11.3978829 C7.51932611,9.3954074 9.15363709,7.77184542 11.1659916,7.77184542 C13.1800077,7.77184542 14.812657,9.3954074 14.812657,11.3978829 C14.812657,13.3995346 13.1800077,15.0230966 11.1659916,15.0230966 C9.15363709,15.0230966 7.51932611,13.3995346 7.51932611,11.3978829 Z" id="path-51"></path>
        <path d="M0.432880542,10.0741568 C0.595730035,10.4843719 0.687125159,10.9300071 0.687125159,11.3978829 C0.687125159,11.8657587 0.595730035,12.3113939 0.432880542,12.721609 C1.09009457,18.1030044 5.69807055,22.2743478 11.2881287,22.2743478 C13.9228008,22.2743478 16.3397864,21.3468335 18.228342,19.8031728 C18.1053741,19.4407338 18.0347505,19.0527593 18.0347505,18.6491341 C18.0347505,16.6738415 19.6241948,15.0708727 21.5999912,15.0263915 C22.0037915,13.8921222 22.2256324,12.6697143 22.2256324,11.3978829 C22.2256324,5.39128015 17.3293464,0.521417928 11.2881287,0.521417928 C5.69807055,0.521417928 1.0892637,4.69193762 0.432880542,10.0741568 Z M11.328841,7.77184542 C13.3436881,7.77184542 14.9755065,9.39623112 14.9755065,11.3978829 C14.9755065,13.3995346 13.3436881,15.0230966 11.328841,15.0230966 C11.3221941,15.0230966 11.3155472,15.0222729 11.3089003,15.0222729 C11.3014225,15.0222729 11.2947756,15.0230966 11.2881287,15.0230966 C10.1672921,15.0230966 9.16693093,14.5206244 8.4980848,13.7298484 C7.96383875,13.098875 7.64229409,12.2858584 7.64229409,11.3978829 C7.64229409,9.39623112 9.27411249,7.77184542 11.2881287,7.77184542 C11.2964373,7.77184542 11.3039151,7.77349287 11.310562,7.77349287 C11.3172089,7.77349287 11.323025,7.77184542 11.328841,7.77184542 Z" id="path-53"></path>
    </defs>
    <g id="UI" stroke="none" stroke-width="1" fill="none" fill-rule="evenodd">
        <g id="Inicio-de-sesión-con-cuenta" transform="translate(-149.000000, -100.000000)">
            <g id="Group-5" transform="translate(149.000000, 99.000000)">
                <g id="Group-85" transform="translate(0.084654, 0.814199)">
                    <g id="Group-3" transform="translate(0.000000, 68.448891)">
                        <mask id="mask-2" fill="white">
                            <use xlink:href="#path-1"></use>
                        </mask>
                        <g id="Clip-2"></g>
                        <polygon id="Fill-1" fill="#55AA6E" mask="url(#mask-2)" points="-2.40357306 19.1876377 13.6795355 19.1876377 13.6795355 -2.6279166 -2.40357306 -2.6279166"></polygon>
                    </g>
                    <g id="Group-6" transform="translate(11.216674, 75.888987)">
                        <mask id="mask-4" fill="white">
                            <use xlink:href="#path-3"></use>
                        </mask>
                        <g id="Clip-5"></g>
                        <polygon id="Fill-4" fill="#55AA6E" mask="url(#mask-4)" points="-2.32101033 11.7104418 9.39424514 11.7104418 9.39424514 -2.59158863 -2.32101033 -2.59158863"></polygon>
                    </g>
                    <g id="Group-9" transform="translate(18.694457, 71.424929)">
                        <mask id="mask-6" fill="white">
                            <use xlink:href="#path-5"></use>
                        </mask>
                        <g id="Clip-8"></g>
                        <polygon id="Fill-7" fill="#55AA6E" mask="url(#mask-6)" points="-2.65529272 16.2664697 11.2974344 16.2664697 11.2974344 -2.49847751 -2.65529272 -2.49847751"></polygon>
                    </g>
                    <g id="Group-12" transform="translate(28.415575, 75.888987)">
                        <mask id="mask-8" fill="white">
                            <use xlink:href="#path-7"></use>
                        </mask>
                        <g id="Clip-11"></g>
                        <polygon id="Fill-10" fill="#55AA6E" mask="url(#mask-8)" points="-2.85969111 11.7104418 11.3371912 11.7104418 11.3371912 -2.63866415 -2.85969111 -2.63866415"></polygon>
                    </g>
                    <g id="Group-15" transform="translate(38.136693, 71.424929)">
                        <mask id="mask-10" fill="white">
                            <use xlink:href="#path-9"></use>
                        </mask>
                        <g id="Clip-14"></g>
                        <polygon id="Fill-13" fill="#55AA6E" mask="url(#mask-10)" points="-2.60152066 16.2614476 8.08547736 16.2614476 8.08547736 -2.40891735 -2.60152066 -2.40891735"></polygon>
                    </g>
                    <g id="Group-18" transform="translate(49.353367, 72.168939)">
                        <mask id="mask-12" fill="white">
                            <use xlink:href="#path-11"></use>
                        </mask>
                        <g id="Clip-17"></g>
                        <polygon id="Fill-16" fill="#DB4839" mask="url(#mask-12)" points="-2.11546477 15.5386918 5.12676793 15.5386918 5.12676793 -2.58444163 -2.11546477 -2.58444163"></polygon>
                    </g>
                    <g id="Group-21" transform="translate(54.587815, 72.168939)">
                        <mask id="mask-14" fill="white">
                            <use xlink:href="#path-13"></use>
                        </mask>
                        <g id="Clip-20"></g>
                        <polygon id="Fill-19" fill="#DB4839" mask="url(#mask-14)" points="-2.74327806 15.5386918 13.4255579 15.5386918 13.4255579 -2.49421806 -2.74327806 -2.49421806"></polygon>
                    </g>
                    <g id="Group-24" transform="translate(65.056711, 72.168939)">
                        <mask id="mask-16" fill="white">
                            <use xlink:href="#path-15"></use>
                        </mask>
                        <g id="Clip-23"></g>
                        <polygon id="Fill-22" fill="#DB4839" mask="url(#mask-16)" points="-2.57695902 15.5386918 12.8743262 15.5386918 12.8743262 -2.3441265 -2.57695902 -2.3441265"></polygon>
                    </g>
                    <polygon id="Fill-25" fill="#8F3223" points="33.2970423 44.6405809 30.6589098 68.4488907 41.1278058 68.4488907 41.1278058 44.6405809"></polygon>
                    <polygon id="Fill-26" fill="#A9472D" points="35.8933578 44.6405809 35.8933578 68.4488907 45.6144755 68.4488907 43.0575827 44.6405809"></polygon>
                    <g id="Group-29" transform="translate(7.477783, 37.944494)">
                        <mask id="mask-18" fill="white">
                            <use xlink:href="#path-17"></use>
                        </mask>
                        <g id="Clip-28"></g>
                        <polygon id="Fill-27" fill="#2E9F6B" mask="url(#mask-18)" points="-2.75529592 14.8447292 13.4912556 14.8447292 13.4912556 -2.28594495 -2.75529592 -2.28594495"></polygon>
                    </g>
                    <g id="Group-32" transform="translate(18.694457, 29.016378)">
                        <mask id="mask-20" fill="white">
                            <use xlink:href="#path-19"></use>
                        </mask>
                        <g id="Clip-31"></g>
                        <polygon id="Fill-30" fill="#208D5C" mask="url(#mask-20)" points="-2.20965813 25.359198 25.4437705 25.359198 25.4437705 -2.21746771 -2.20965813 -2.21746771"></polygon>
                    </g>
                    <g id="Group-35" transform="translate(10.468896, 36.456474)">
                        <mask id="mask-22" fill="white">
                            <use xlink:href="#path-21"></use>
                        </mask>
                        <g id="Clip-34"></g>
                        <polygon id="Fill-33" fill="#208D5C" mask="url(#mask-22)" points="-2.63301043 25.1969242 25.1203652 25.1969242 25.1203652 -2.37974154 -2.63301043 -2.37974154"></polygon>
                    </g>
                    <g id="Group-38" transform="translate(56.831150, 37.944494)">
                        <mask id="mask-24" fill="white">
                            <use xlink:href="#path-23"></use>
                        </mask>
                        <g id="Clip-37"></g>
                        <polygon id="Fill-36" fill="#2E9F6B" mask="url(#mask-24)" points="-2.24333486 14.8287082 14.0032167 14.8287082 14.0032167 -2.30196595 -2.24333486 -2.30196595"></polygon>
                    </g>
                    <g id="Group-41" transform="translate(42.623362, 36.456474)">
                        <mask id="mask-26" fill="white">
                            <use xlink:href="#path-25"></use>
                        </mask>
                        <g id="Clip-40"></g>
                        <polygon id="Fill-39" fill="#208D5C" mask="url(#mask-26)" points="-2.6645833 25.1969242 25.0879615 25.1969242 25.0879615 -2.38056526 -2.6645833 -2.38056526"></polygon>
                    </g>
                    <g id="Group-44" transform="translate(34.397801, 29.016378)">
                        <mask id="mask-28" fill="white">
                            <use xlink:href="#path-27"></use>
                        </mask>
                        <g id="Clip-43"></g>
                        <polygon id="Fill-42" fill="#208D5C" mask="url(#mask-28)" points="-2.81912414 25.3583743 24.4271268 25.3583743 24.4271268 -2.21829144 -2.81912414 -2.21829144"></polygon>
                    </g>
                    <g id="Group-47" transform="translate(58.326706, 17.856232)">
                        <mask id="mask-30" fill="white">
                            <use xlink:href="#path-29"></use>
                        </mask>
                        <g id="Clip-46"></g>
                        <polygon id="Fill-45" fill="#2E9F6B" mask="url(#mask-30)" points="-2.79848546 13.9398185 13.3758592 13.9398185 13.3758592 -2.25514649 -2.79848546 -2.25514649"></polygon>
                    </g>
                    <g id="Group-50" transform="translate(32.154466, 0.000000)">
                        <mask id="mask-32" fill="white">
                            <use xlink:href="#path-31"></use>
                        </mask>
                        <g id="Clip-49"></g>
                        <polygon id="Fill-48" fill="#2E9F6B" mask="url(#mask-32)" points="-2.57262437 13.5898683 13.6739272 13.5898683 13.6739272 -2.60509676 -2.57262437 -2.60509676"></polygon>
                    </g>
                    <g id="Group-53" transform="translate(5.982226, 17.856232)">
                        <mask id="mask-34" fill="white">
                            <use xlink:href="#path-33"></use>
                        </mask>
                        <g id="Clip-52"></g>
                        <polygon id="Fill-51" fill="#2E9F6B" mask="url(#mask-34)" points="-2.11770811 13.9398185 14.0566365 13.9398185 14.0566365 -2.25514649 -2.11770811 -2.25514649"></polygon>
                    </g>
                    <g id="Group-56" transform="translate(15.703344, 4.464058)">
                        <mask id="mask-36" fill="white">
                            <use xlink:href="#path-35"></use>
                        </mask>
                        <g id="Clip-55"></g>
                        <polygon id="Fill-54" fill="#2E9F6B" mask="url(#mask-36)" points="-2.14642279 12.4278757 14.0279218 12.4278757 14.0279218 -2.34549052 -2.14642279 -2.34549052"></polygon>
                    </g>
                    <g id="Group-59" transform="translate(48.605589, 4.464058)">
                        <mask id="mask-38" fill="white">
                            <use xlink:href="#path-37"></use>
                        </mask>
                        <g id="Clip-58"></g>
                        <polygon id="Fill-57" fill="#2E9F6B" mask="url(#mask-38)" points="-2.79130679 12.5161887 13.3830379 12.5161887 13.3830379 -2.33081064 -2.79130679 -2.33081064"></polygon>
                    </g>
                    <g id="Group-62" transform="translate(4.486670, 22.320290)">
                        <mask id="mask-40" fill="white">
                            <use xlink:href="#path-39"></use>
                        </mask>
                        <g id="Clip-61"></g>
                        <polygon id="Fill-60" fill="#2E9F6B" mask="url(#mask-40)" points="-2.92048964 24.7870959 24.832886 24.7870959 24.832886 -2.88841092 -2.92048964 -2.88841092"></polygon>
                    </g>
                    <g id="Group-65" transform="translate(48.605589, 22.320290)">
                        <mask id="mask-42" fill="white">
                            <use xlink:href="#path-41"></use>
                        </mask>
                        <g id="Clip-64"></g>
                        <polygon id="Fill-63" fill="#2E9F6B" mask="url(#mask-42)" points="-2.33135905 24.7862692 25.3220695 24.7862692 25.3220695 -2.89006427 -2.33135905 -2.89006427"></polygon>
                    </g>
                    <g id="Group-68" transform="translate(18.694457, 14.880194)">
                        <mask id="mask-44" fill="white">
                            <use xlink:href="#path-43"></use>
                        </mask>
                        <g id="Clip-67"></g>
                        <polygon id="Fill-66" fill="#2E9F6B" mask="url(#mask-44)" points="-2.20965813 24.9499513 25.4437705 24.9499513 25.4437705 -2.72638214 -2.20965813 -2.72638214"></polygon>
                    </g>
                    <g id="Group-71" transform="translate(34.397801, 14.880194)">
                        <mask id="mask-46" fill="white">
                            <use xlink:href="#path-45"></use>
                        </mask>
                        <g id="Clip-70"></g>
                        <polygon id="Fill-69" fill="#2E9F6B" mask="url(#mask-46)" points="-2.81912414 24.9491246 24.4271268 24.9491246 24.4271268 -2.72638214 -2.81912414 -2.72638214"></polygon>
                    </g>
                    <g id="Group-74" transform="translate(8.973339, 7.440097)">
                        <mask id="mask-48" fill="white">
                            <use xlink:href="#path-47"></use>
                        </mask>
                        <g id="Clip-73"></g>
                        <polygon id="Fill-72" fill="#43B07C" mask="url(#mask-48)" points="-2.20469075 25.1136335 25.4479099 25.1136335 25.4479099 -2.56270001 -2.20469075 -2.56270001"></polygon>
                    </g>
                    <g id="Group-77" transform="translate(44.118919, 7.440097)">
                        <mask id="mask-50" fill="white">
                            <use xlink:href="#path-49"></use>
                        </mask>
                        <g id="Clip-76"></g>
                        <polygon id="Fill-75" fill="#43B07C" mask="url(#mask-50)" points="-2.88458145 25.1128068 24.7680192 25.1128068 24.7680192 -2.56270001 -2.88458145 -2.56270001"></polygon>
                    </g>
                    <g id="Group-80" transform="translate(19.442235, 0.000000)">
                        <mask id="mask-52" fill="white">
                            <use xlink:href="#path-51"></use>
                        </mask>
                        <g id="Clip-79"></g>
                        <polygon id="Fill-78" fill="#43B07C" mask="url(#mask-52)" points="-2.71111172 25.1862157 24.968317 25.1862157 24.968317 -2.39044996 -2.71111172 -2.39044996"></polygon>
                    </g>
                    <g id="Group-83" transform="translate(33.650023, 0.000000)">
                        <mask id="mask-54" fill="white">
                            <use xlink:href="#path-53"></use>
                        </mask>
                        <g id="Clip-82"></g>
                        <polygon id="Fill-81" fill="#43B07C" mask="url(#mask-54)" points="-2.50505726 25.1862157 25.1635702 25.1862157 25.1635702 -2.39127369 -2.50505726 -2.39127369"></polygon>
                    </g>
                    <polygon id="Fill-84" fill="#2E9F6B" points="16.4511223 69.1929004 59.8222629 69.1929004 59.8222629 68.4488907 16.4511223 68.4488907"></polygon>
                </g>
            </g>
        </g>
    </g>
</svg>