<?xml version="1.0" encoding="UTF-8"?>
<svg width="16px" height="17px" viewBox="0 0 16 17" version="1.1" xmlns="http://www.w3.org/2000/svg" xmlns:xlink="http://www.w3.org/1999/xlink">
    <!-- Generator: Sketch 52 (66869) - http://www.bohemiancoding.com/sketch -->
    <title>Group 2</title>
    <desc>Created with Sketch.</desc>
    <g id="UI" stroke="none" stroke-width="1" fill="none" fill-rule="evenodd">
        <g id="Inicio-de-sesión-con-cuenta" transform="translate(-102.000000, -577.000000)">
            <g id="Group" transform="translate(78.000000, 569.759000)">
                <g id="Group-2" transform="translate(24.000000, 8.000000)">
                    <path d="M3.498,9.5387 L2.949,11.5897 L0.94,11.6327 C0.34,10.5187 2.30926389e-14,9.2457 2.30926389e-14,7.8927 C2.30926389e-14,6.5837 0.318,5.3497 0.882,4.2627 L0.883,4.2627 L2.671,4.5907 L3.454,6.3677 C3.29,6.8457 3.201,7.3577 3.201,7.8927 C3.201,8.4717 3.306,9.0267 3.498,9.5387" id="Path" fill="#FEC827"></path>
                    <path d="M15.6469,6.4176 C15.7379,6.8956 15.7849,7.3886 15.7849,7.8926 C15.7849,8.4566 15.7259,9.0086 15.6119,9.5396 C15.2279,11.3496 14.2239,12.9296 12.8339,14.0466 L12.8329,14.0466 L10.5809,13.9316 L10.2619,11.9416 C11.1849,11.4006 11.9059,10.5546 12.2859,9.5396 L8.0659,9.5396 L8.0659,6.4176 L12.3479,6.4176 L15.6469,6.4176 Z" id="Path" fill="#4F98F4"></path>
                    <path d="M12.8329,14.0465 C11.4809,15.1345 9.7629,15.7845 7.8929,15.7845 C4.8869,15.7845 2.2729,14.1055 0.9399,11.6325 L3.4979,9.5385 C4.1649,11.3175 5.8809,12.5835 7.8929,12.5835 C8.7569,12.5835 9.5669,12.3505 10.2619,11.9425 L12.8329,14.0465 Z" id="Path" fill="#2CB469"></path>
                    <path d="M12.9301,1.817 L10.3731,3.91 C9.6541,3.461 8.8041,3.201 7.8921,3.201 C5.8351,3.201 4.0871,4.525 3.4541,6.368 L0.8831,4.262 L0.8821,4.262 C2.1961,1.73 4.8421,-3.19744231e-14 7.8921,-3.19744231e-14 C9.8071,-3.19744231e-14 11.5631,0.681 12.9301,1.817" id="Path" fill="#F45C46"></path>
                </g>
            </g>
        </g>
    </g>
</svg>